<?xml version="1.0" encoding="UTF-8"?>
<svg width="70px" height="70px" viewBox="0 0 70 70" version="1.1" xmlns="http://www.w3.org/2000/svg" xmlns:xlink="http://www.w3.org/1999/xlink">
    <!-- Generator: Sketch 48.2 (47327) - http://www.bohemiancoding.com/sketch -->
    <title>browser</title>
    <desc>Created with Sketch.</desc>
    <defs>
        <linearGradient x1="50%" y1="0%" x2="50%" y2="100%" id="linearGradient-1">
            <stop stop-color="#FB8A69" offset="0%"></stop>
            <stop stop-color="#FA9800" offset="100%"></stop>
        </linearGradient>
    </defs>
    <g id="Symbols" stroke="none" stroke-width="1" fill="none" fill-rule="evenodd">
        <g id="browser">
            <g transform="translate(2.000000, 5.000000)">
                <path d="M0,2 L-2.22044605e-16,52 C-8.67738547e-17,53.1045695 0.8954305,54 2,54 L60,54 C61.1045695,54 62,53.1045695 62,52 L62,2 C62,0.8954305 61.1045695,3.49926844e-15 60,-2.22044605e-16 L2,-2.22044605e-16 C0.8954305,-1.91384796e-17 -3.57315355e-16,0.8954305 -2.22044605e-16,2 Z M29,5 C30.656,5 32,6.344 32,8 C32,9.656 30.656,11 29,11 C27.344,11 26,9.656 26,8 C26,6.344 27.344,5 29,5 Z M19,5 C20.656,5 22,6.344 22,8 C22,9.656 20.656,11 19,11 C17.344,11 16,9.656 16,8 C16,6.344 17.344,5 19,5 Z M9,5 C10.656,5 12,6.344 12,8 C12,9.656 10.656,11 9,11 C7.344,11 6,9.656 6,8 C6,6.344 7.344,5 9,5 Z M60,52 L2,52 L2,15 L60,15 L60,52 Z M7,33 L11,33 C11.552,33 12,32.552 12,32 C12,31.448 11.552,31 11,31 L7,31 C6.448,31 6,31.448 6,32 C6,32.552 6.448,33 7,33 Z M23,21 L29,21 C29.552,21 30,20.552 30,20 C30,19.448 29.552,19 29,19 L23,19 C22.448,19 22,19.448 22,20 C22,20.552 22.448,21 23,21 Z M19,27 L27,27 C27.552,27 28,26.552 28,26 C28,25.448 27.552,25 27,25 L19,25 C18.448,25 18,25.448 18,26 C18,26.552 18.448,27 19,27 Z M34.8333333,21 L43.1666667,21 C43.6266667,21 44,20.552 44,20 C44,19.448 43.6266667,19 43.1666667,19 L34.8333333,19 C34.3733333,19 34,19.448 34,20 C34,20.552 34.3733333,21 34.8333333,21 Z M7,21 L17,21 C17.552,21 18,20.552 18,20 C18,19.448 17.552,19 17,19 L7,19 C6.448,19 6,19.448 6,20 C6,20.552 6.448,21 7,21 Z M7,27 L13,27 C13.552,27 14,26.552 14,26 C14,25.448 13.552,25 13,25 L7,25 C6.448,25 6,25.448 6,26 C6,26.552 6.448,27 7,27 Z M7,39 L13,39 C13.552,39 14,38.552 14,38 C14,37.448 13.552,37 13,37 L7,37 C6.448,37 6,37.448 6,38 C6,38.552 6.448,39 7,39 Z" fill="#35495E" fill-rule="nonzero"></path>
                <circle id="Oval-4" fill="#FFFFFF" cx="50" cy="44" r="17"></circle>
                <path d="M60.6886428,51.401575 L66.2578346,57.0046234 C67.16829,57.9179862 67.16829,59.4027861 66.2578346,60.3161489 C65.8002724,60.7704883 65.2026401,61 64.6050079,61 C64.0073756,61 63.4097433,60.7704883 62.9568501,60.3161489 L57.3789294,54.7043184 C55.282688,56.1520917 52.7403638,57 50,57 C42.8202983,57 37,51.1797017 37,44 C37,36.8202983 42.8202983,31 50,31 C57.1797017,31 63,36.8202983 63,44 C63,46.7502394 62.1459694,49.3010092 60.6886428,51.401575 Z M50,53 C54.9705627,53 59,48.9705627 59,44 C59,39.0294373 54.9705627,35 50,35 C45.0294373,35 41,39.0294373 41,44 C41,48.9705627 45.0294373,53 50,53 Z" id="zoom" fill="url(#linearGradient-1)"></path>
            </g>
        </g>
    </g>
</svg>