<?xml version="1.0" encoding="UTF-8"?>
<svg width="70px" height="70px" viewBox="0 0 70 70" version="1.1" xmlns="http://www.w3.org/2000/svg" xmlns:xlink="http://www.w3.org/1999/xlink">
    <!-- Generator: Sketch 48.2 (47327) - http://www.bohemiancoding.com/sketch -->
    <title>documents</title>
    <desc>Created with Sketch.</desc>
    <defs>
        <linearGradient x1="50%" y1="0%" x2="50%" y2="100%" id="linearGradient-1">
            <stop stop-color="#FB8A69" offset="0%"></stop>
            <stop stop-color="#FA9800" offset="100%"></stop>
        </linearGradient>
    </defs>
    <g id="Symbols" stroke="none" stroke-width="1" fill="none" fill-rule="evenodd">
        <g id="documents">
            <g id="document" transform="translate(7.000000, 8.000000)">
                <path d="M28.5034786,48 C28.8168591,48.6926668 29.1753158,49.3605807 29.575107,50 L2,50 C0.984615385,50 0,49.7198276 0,48 L0,2 C0,0.280172414 0.984615385,1.33226763e-15 2,-3.07753822e-13 L30,-3.07753822e-13 L42,12 L42,24.1164063 C41.3202656,24.1960667 40.6527891,24.3158276 40,24.4732595 L40,14 L31,14 C29,14 28.1411765,13.3042959 28,11.6875 L28,2 L8,2 L8,48 L28.5034786,48 Z" id="paper" fill="#35495E" fill-rule="nonzero"></path>
                <path d="M13,17.999913 L22.0000061,17.999913 C22.5522892,17.999913 23.000003,18.4476269 23.000003,18.99991 C23.0000014,19.5521983 22.5522852,19.999913 22,19.999913 L13,19.999913 C12.4477153,19.999913 12,19.5521978 12,18.999913 C12,18.4476283 12.4477153,17.999913 13,17.999913 Z M13,23.9999454 L34,23.9999454 C34.5522847,23.9999454 35,24.4476607 35,24.9999454 C35,25.5522302 34.5522847,25.9999454 34,25.9999454 L13,25.9999454 C12.4477153,25.9999454 12,25.5522302 12,24.9999454 C12,24.4476607 12.4477153,23.9999454 13,23.9999454 Z M13,29.9999454 L29,29.9999454 C29.5522847,29.9999454 30,30.4476607 30,30.9999454 C30,31.5522302 29.5522847,31.9999454 29,31.9999454 L13,31.9999454 C12.4477153,31.9999454 12,31.5522302 12,30.9999454 C12,30.4476607 12.4477153,29.9999454 13,29.9999454 Z M13,35.9999454 L26,35.9999454 C26.5522847,35.9999454 27,36.4476607 27,36.9999454 C27,37.5522302 26.5522847,37.9999454 26,37.9999454 L13,37.9999454 C12.4477153,37.9999454 12,37.5522302 12,36.9999454 C12,36.4476607 12.4477153,35.9999454 13,35.9999454 Z" id="strings" fill="#35495E" fill-rule="nonzero"></path>
                <g id="badge" transform="translate(31.000000, 28.000000)">
                    <circle id="Oval-10" fill="url(#linearGradient-1)" cx="13" cy="13" r="13"></circle>
                    <path d="M15,11 L19,11 C19.5522847,11 20,11.4477153 20,12 L20,14 C20,14.5522847 19.5522847,15 19,15 L15,15 L15,19 C15,19.5522847 14.5522847,20 14,20 L12,20 C11.4477153,20 11,19.5522847 11,19 L11,15 L7,15 C6.44771525,15 6,14.5522847 6,14 L6,12 C6,11.4477153 6.44771525,11 7,11 L11,11 L11,7 C11,6.44771525 11.4477153,6 12,6 L14,6 C14.5522847,6 15,6.44771525 15,7 L15,11 Z" id="Combined-Shape" fill="#FFFFFF"></path>
                </g>
            </g>
        </g>
    </g>
</svg>