<?xml version="1.0" encoding="UTF-8"?>
<svg width="70px" height="70px" viewBox="0 0 70 70" version="1.1" xmlns="http://www.w3.org/2000/svg" xmlns:xlink="http://www.w3.org/1999/xlink">
    <!-- Generator: Sketch 48.2 (47327) - http://www.bohemiancoding.com/sketch -->
    <title>launch_more_products</title>
    <desc>Created with Sketch.</desc>
    <defs>
        <linearGradient x1="50%" y1="0%" x2="50%" y2="100%" id="linearGradient-1">
            <stop stop-color="#FB8A69" offset="0%"></stop>
            <stop stop-color="#FA9800" offset="100%"></stop>
        </linearGradient>
    </defs>
    <g id="Symbols" stroke="none" stroke-width="1" fill="none" fill-rule="evenodd">
        <g id="launch_more_products">
            <g id="image-/-launch_more_products" transform="translate(5.000000, 4.000000)">
                <g id="been">
                    <path d="M6.59502471,28 L11.8632419,51.2212481 C11.9665741,51.6767156 12.3714175,52 12.8384595,52 L46.1614611,52 C46.628503,52 47.0333465,51.6767156 47.1366786,51.2212481 L52.4048959,28 L6.59502471,28 Z M4.09045915,26 L54.9094614,26 L49.0871137,51.6637444 C48.7771172,53.0301469 47.5625869,54 46.1614611,54 L12.8384595,54 C11.4373336,54 10.2228033,53.0301469 9.91280686,51.6637444 L4.09045915,26 Z" id="Rectangle-11" fill="#35495E" fill-rule="nonzero"></path>
                    <circle id="Oval-10" fill="#FFFFFF" cx="45" cy="50" r="17"></circle>
                    <path d="M3,15 L56,15 C57.6568542,15 59,16.3431458 59,18 L59,25 C59,26.6568542 57.6568542,28 56,28 L3,28 C1.34314575,28 0,26.6568542 0,25 L0,18 C0,16.3431458 1.34314575,15 3,15 Z" id="Rectangle-14" fill="#35495E" fill-rule="nonzero"></path>
                    <path d="M23.0249598,1.01592335 L24.6222308,2.21955339 C25.063305,2.55192665 25.1514246,3.17892971 24.8190513,3.62000393 L10.3754907,22.7872562 C10.0431175,23.2283304 9.41611442,23.3164499 8.97504021,22.9840767 L7.37776919,21.7804466 C6.93669498,21.4480733 6.84857544,20.8210703 7.1809487,20.3799961 L21.6245093,1.21274383 C21.9568825,0.77166962 22.5838856,0.683550087 23.0249598,1.01592335 Z M35.9750402,1.01592335 C36.4161144,0.683550087 37.0431175,0.77166962 37.3754907,1.21274383 L51.8190513,20.3799961 C52.1514246,20.8210703 52.063305,21.4480733 51.6222308,21.7804466 L50.0249598,22.9840767 C49.5838856,23.3164499 48.9568825,23.2283304 48.6245093,22.7872562 L34.1809487,3.62000393 C33.8485754,3.17892971 33.936695,2.55192665 34.3777692,2.21955339 L35.9750402,1.01592335 Z" id="Combined-Shape" fill="#35495E"></path>
                </g>
                <g id="cross" transform="translate(32.000000, 37.000000)">
                    <circle id="Oval-10" fill="url(#linearGradient-1)" cx="13" cy="13" r="13"></circle>
                    <path d="M15,11 L19,11 C19.5522847,11 20,11.4477153 20,12 L20,14 C20,14.5522847 19.5522847,15 19,15 L15,15 L15,19 C15,19.5522847 14.5522847,20 14,20 L12,20 C11.4477153,20 11,19.5522847 11,19 L11,15 L7,15 C6.44771525,15 6,14.5522847 6,14 L6,12 C6,11.4477153 6.44771525,11 7,11 L11,11 L11,7 C11,6.44771525 11.4477153,6 12,6 L14,6 C14.5522847,6 15,6.44771525 15,7 L15,11 Z" id="Combined-Shape" fill="#FFFFFF"></path>
                </g>
            </g>
        </g>
    </g>
</svg>