<?xml version="1.0" encoding="UTF-8"?>
<svg width="70px" height="70px" viewBox="0 0 70 70" version="1.1" xmlns="http://www.w3.org/2000/svg" xmlns:xlink="http://www.w3.org/1999/xlink">
    <!-- Generator: Sketch 48.2 (47327) - http://www.bohemiancoding.com/sketch -->
    <title>shape</title>
    <desc>Created with Sketch.</desc>
    <defs>
        <linearGradient x1="50%" y1="0%" x2="50%" y2="100%" id="linearGradient-1">
            <stop stop-color="#FB8A69" offset="0%"></stop>
            <stop stop-color="#FA9800" offset="100%"></stop>
        </linearGradient>
    </defs>
    <g id="Symbols" stroke="none" stroke-width="1" fill="none" fill-rule="evenodd">
        <g id="shape">
            <g id="share" transform="translate(8.000000, 7.000000)">
                <path d="M19.7247006,30.3493307 L32.3230522,39.1811649 L31.1749947,40.8188351 L18.4665647,31.9098327 C18.9245128,31.4234527 19.3453958,30.901781 19.7247006,30.3493307 Z M20.0965147,16.2238809 L37.5880374,8.33835834 L38.4100094,10.1616417 L21.0067462,18.0073751 C20.7485366,17.3871174 20.4436651,16.7911582 20.0965147,16.2238809 Z" id="Combined-Shape" fill="#35495E" fill-rule="nonzero"></path>
                <path d="M43,14 C39.1340068,14 36,10.8659932 36,7 C36,3.13400675 39.1340068,0 43,0 C46.8659932,0 50,3.13400675 50,7 C50,10.8659932 46.8659932,14 43,14 Z M43,12 C45.7614237,12 48,9.76142375 48,7 C48,4.23857625 45.7614237,2 43,2 C40.2385763,2 38,4.23857625 38,7 C38,9.76142375 40.2385763,12 43,12 Z" id="Oval" fill="#35495E" fill-rule="nonzero"></path>
                <circle id="Oval-Copy-2" fill="url(#linearGradient-1)" cx="9" cy="23" r="9"></circle>
                <circle id="Combined-Shape" fill="#35495E" cx="38" cy="44" r="12"></circle>
            </g>
        </g>
    </g>
</svg>