<?xml version="1.0" encoding="UTF-8"?>
<svg width="367px" height="44px" viewBox="0 0 367 44" version="1.1" xmlns="http://www.w3.org/2000/svg" xmlns:xlink="http://www.w3.org/1999/xlink">
    <!-- Generator: Sketch 48.2 (47327) - http://www.bohemiancoding.com/sketch -->
    <title>amzlenders-logo-white-text</title>
    <desc>Created with Sketch.</desc>
    <defs></defs>
    <g id="Symbols" stroke="none" stroke-width="1" fill="none" fill-rule="evenodd">
        <g id="amzlenders-logo-white-text" fill-rule="nonzero">
            <g transform="translate(1.000000, 1.000000)" id="Shape">
                <path d="M110,17.27 L110.77,17.27 L110.77,17.09 C110.77,13.8 109.38,12.58 106.26,12.58 C105.16,12.58 103,12.85 103,14.11 L103,15.33 L97.35,15.33 L97.35,12.9 C97.35,8.62 103.78,8.16 106.35,8.16 C114.5,8.16 116.9,12.16 116.9,17.32 L116.9,25.89 C116.859692,26.4005039 117.239671,26.8475378 117.75,26.89 L119.88,26.89 L119.88,31.72 L114.41,31.72 C112.16,31.72 111.29,30.55 111.29,29.19 C111.272047,28.8569084 111.272047,28.5230916 111.29,28.19 L111.19,28.19 C109.697652,30.8370049 106.834491,32.4100001 103.8,32.25 C99.44,32.25 95.46,29.68 95.46,25.08 C95.48,17.86 106,17.27 110,17.27 Z M105.3,27.78 C108.56,27.78 110.86,24.53 110.86,21.78 L110.86,21.2 L109.81,21.2 C106.64,21.2 101.61,21.61 101.61,24.81 C101.61,26.34 102.82,27.81 105.31,27.81 L105.3,27.78 Z M123.3,14.57 C123.3,13.89 122.92,13.57 122.24,13.57 L120.32,13.57 L120.32,8.7 L125.93,8.7 C128.09,8.7 129.14,9.65 129.14,11.27 L129.14,13 L129.24,13 C130.817524,10.0927793 133.842657,8.26469649 137.15,8.22 C140.84,8.22 143.24,9.84 144.3,12.96 L144.4,12.96 C146.124167,9.99401161 149.309472,8.18365835 152.74,8.22 C157.82,8.22 160.74,10.93 160.74,16.97 L160.74,25.97 C160.699692,26.4805039 161.079671,26.9275378 161.59,26.97 L163.67,26.97 L163.67,31.8 L157.92,31.8 C155.62,31.8 154.66,30.9 154.66,28.73 L154.66,18 C154.66,15.38 154.13,13.4 151.3,13.4 C148.3,13.4 146.12,15.79 145.45,18.68 C145.14864,19.6239099 144.996804,20.6091551 145,21.6 L145,31.7 L138.91,31.7 L138.91,18 C138.91,15.52 138.53,13.4 135.6,13.4 C132.67,13.4 130.47,15.79 129.7,18.72 C129.446962,19.6624643 129.319196,20.6341586 129.32,21.61 L129.32,31.71 L123.32,31.71 L123.3,14.57 Z M166.42,28.64 L177.68,15.7 C178.312124,14.9423074 179.000763,14.2336113 179.74,13.58 L179.74,13.49 C178.992224,13.561321 178.241084,13.5913665 177.49,13.58 L173.08,13.58 C172.800646,13.5426349 172.519419,13.633969 172.315326,13.8283426 C172.111234,14.0227163 172.006298,14.2991566 172.03,14.58 L172.03,15.89 L166.52,15.89 L166.52,11.79 C166.52,9.67 167.52,8.72 169.78,8.72 L187.72,8.72 L187.72,11.83 L176.44,24.76 C175.793266,25.5044019 175.105533,26.2121669 174.38,26.88 L174.38,27 C175.141554,26.8905721 175.910796,26.8437487 176.68,26.86 L182,26.86 C182.67,26.86 183.05,26.54 183.05,25.86 L183.05,24.58 L188.56,24.58 L188.56,28.64 C188.56,30.8 187.56,31.71 185.35,31.71 L166.35,31.71 L166.42,28.64 Z" fill="#FFFFFF"></path>
                <path d="M193,3.79 C193,3.11 192.62,2.79 191.94,2.79 L189.88,2.79 L189.88,0 L193.43,0 C195.49,0 196.36,0.81 196.36,2.75 L196.36,27.92 C196.36,28.6 196.74,28.92 197.41,28.92 L208.58,28.92 C209.25,28.92 209.64,28.6 209.64,27.92 L209.64,25.8 L212.8,25.8 L212.8,29 C212.8,30.94 211.94,31.75 209.87,31.75 L195.87,31.75 C193.81,31.75 192.94,30.94 192.94,29 L193,3.79 Z M225.32,8.48 C231.99,8.48 235.44,13.31 235.44,18.94 C235.44,19.48 235.34,20.47 235.34,20.47 L216.82,20.47 C216.92,26.2 221.18,29.47 226.17,29.47 C228.843408,29.4475045 231.41712,28.4521464 233.41,26.67 L235,29 C232.470126,31.0985549 229.286973,32.2480266 226,32.25 C218.85,32.25 213.39,27.38 213.39,20.39 C213.39,12.94 218.83,8.48 225.31,8.48 L225.32,8.48 Z M232.07,18 C231.88,13.31 228.81,11 225.26,11 C221.112338,10.8732247 217.534821,13.8904074 216.96,18 L232.07,18 Z M240.42,12.63 C240.460308,12.1194961 240.080329,11.6724622 239.57,11.63 L237.36,11.63 L237.36,9 L240.72,9 C242.72,9 243.65,9.81 243.65,11.53 L243.65,12.53 C243.648688,13.071501 243.615297,13.6124487 243.55,14.15 L243.65,14.15 C245.43547,10.514554 249.192558,8.26970367 253.24,8.42 C259.24,8.42 261.34,11.62 261.34,17.21 L261.34,28 C261.34,28.68 261.72,29 262.4,29 L264.4,29 L264.4,31.66 L261,31.66 C258.94,31.66 258.07,30.85 258.07,28.91 L258.07,18.09 C258.07,14.53 257.49,11.37 252.84,11.37 C248.820101,11.3271084 245.249446,13.9298636 244.06,17.77 C243.78389,18.7692453 243.655861,19.8035903 243.68,20.84 L243.68,31.71 L240.42,31.71 L240.42,12.63 Z M276.68,8.44 C282.53,8.44 284.54,12.68 284.54,12.68 L284.64,12.68 C284.574906,12.112302 284.541521,11.5414157 284.54,10.97 L284.54,3.65 C284.580308,3.13949606 284.200329,2.69246215 283.69,2.65 L281.49,2.65 L281.49,0 L284.89,0 C286.95,0 287.82,0.81 287.82,2.75 L287.82,28 C287.82,28.68 288.2,29 288.88,29 L290.88,29 L290.88,31.66 L287.52,31.66 C285.52,31.66 284.64,30.8 284.64,29.13 C284.638249,28.6482062 284.671671,28.1669272 284.74,27.69 L284.64,27.69 C284.64,27.69 282.64,32.2 276.34,32.2 C270.04,32.2 265.84,27.33 265.84,20.29 C265.84,13.25 270.34,8.43 276.67,8.43 L276.68,8.44 Z M284.68,20.3 C284.68,15.7 282.19,11.19 277.01,11.19 C272.74,11.19 269.24,14.57 269.24,20.3 C269.24,26.03 272.36,29.46 276.86,29.46 C280.86,29.46 284.63,26.79 284.63,20.34 L284.68,20.3 Z M304.29,8.48 C310.96,8.48 314.41,13.31 314.41,18.94 C314.41,19.48 314.31,20.47 314.31,20.47 L295.81,20.47 C295.91,26.2 300.17,29.47 305.16,29.47 C307.833408,29.4475045 310.40712,28.4521464 312.4,26.67 L314,29 C311.470126,31.0985549 308.286973,32.2480266 305,32.25 C297.85,32.25 292.39,27.38 292.39,20.39 C292.4,12.94 297.82,8.48 304.29,8.48 Z M311.06,18 C310.87,13.31 307.8,11 304.25,11 C300.102338,10.8732247 296.524821,13.8904074 295.95,18 L311.06,18 Z M319.21,12.63 C319.250308,12.1194961 318.870329,11.6724622 318.36,11.63 L316.15,11.63 L316.15,9 L319.51,9 C321.51,9 322.44,9.77 322.44,11.57 L322.44,13.1 C322.438479,13.6714157 322.405094,14.242302 322.34,14.81 L322.44,14.81 C323.59,11.38 326.28,8.81 330.06,8.81 C330.493439,8.81610083 330.925343,8.8629741 331.35,8.95 L331.35,11.95 C330.952539,11.8924973 330.551591,11.8624263 330.15,11.86 C326.74,11.86 324.15,14.39 323.15,17.72 C322.693702,19.1484843 322.467543,20.64046 322.48,22.14 L322.48,31.7 L319.22,31.7 L319.21,12.63 Z M334.27,26.11 C336.144056,28.2607762 338.847466,29.5087836 341.7,29.54 C344.39,29.54 346.78,28.32 346.78,25.93 C346.78,20.93 333.26,21.87 333.26,14.56 C333.26,10.46 337,8.43 341.84,8.43 C344.29,8.43 349.18,9.33 349.18,12.53 L349.18,14.47 L346.11,14.47 L346.11,13.47 C346.11,11.8 343.52,11.17 341.94,11.17 C338.58,11.17 336.57,12.25 336.57,14.46 C336.57,19.56 350.09,18.38 350.09,25.92 C350.09,29.71 346.45,32.28 341.65,32.28 C338.119996,32.4010463 334.721674,30.9330884 332.39,28.28 L334.27,26.11 Z" fill="#FFFFFF"></path>
                <path d="M362.74,15.41 C361.052841,16.9129534 358.507159,16.9129534 356.82,15.41 C356.032815,14.6940733 355.591955,13.6739012 355.61,12.61 C355.590778,11.5045782 356.072271,10.4497055 356.92,9.74 C357.712984,9.03667756 358.740159,8.65505319 359.8,8.67 C360.914887,8.63992371 361.995362,9.05770719 362.8,9.83 C364.350752,11.2333572 364.471586,13.6276463 363.07,15.18 L362.8,15.45 L362.74,15.41 Z M357.34,10.3 C356.728231,10.8659785 356.366564,11.65195 356.334678,12.4847624 C356.302791,13.3175748 356.603299,14.1288999 357.17,14.74 L357.34,14.91 C358.718032,16.1917305 360.851968,16.1917305 362.23,14.91 C362.869195,14.3159208 363.232338,13.4826395 363.232338,12.61 C363.232338,11.7373605 362.869195,10.9040792 362.23,10.31 C360.857194,8.99569187 358.692806,8.99569187 357.32,10.31 L357.34,10.3 Z M357.97,14.78 L357.97,10.4 L360.22,10.4 C360.538408,10.4102164 360.851415,10.4850659 361.14,10.62 C361.524278,10.8035878 361.766438,11.1941683 361.76,11.62 C361.788328,11.9247201 361.664927,12.2238726 361.43,12.42 C361.194872,12.5880083 360.918169,12.6883129 360.63,12.71 C360.865617,12.7441337 361.090897,12.829467 361.29,12.96 C361.584546,13.204347 361.73824,13.5792104 361.7,13.96 L361.7,14.35 C361.697,14.3932814 361.697,14.4367186 361.7,14.48 C361.695444,14.5232136 361.695444,14.5667864 361.7,14.61 L361.7,14.73 L360.54,14.73 C360.493173,14.5332086 360.46637,14.3321857 360.46,14.13 C360.458378,13.9504512 360.431446,13.7720281 360.38,13.6 C360.319813,13.448134 360.195232,13.3308812 360.04,13.28 C359.904207,13.2361263 359.762682,13.2125387 359.62,13.21 L359.09,13.21 L359.09,14.76 L357.97,14.78 Z M360.19,11.27 C359.960024,11.2005438 359.720033,11.1701225 359.48,11.18 L359.18,11.18 L359.18,12.45 L359.65,12.45 C359.884223,12.4638855 360.117324,12.4082196 360.32,12.29 C360.485967,12.1710058 360.577124,11.9734977 360.56,11.77 C360.572768,11.5338994 360.418407,11.3211309 360.19,11.26 L360.19,11.27 Z" fill="#FFFFFF"></path>
                <path d="M87.55,11.37 L84.08,11.37 C84,15 83.8,19.7 83.8,21.46 C83.9721144,24.8982059 81.6187542,27.9512137 78.25,28.66 C77.73,28.74 57.89,32.66 56.25,32.89 C55.78357,32.9632294 55.3121435,33.0000074 54.84,33 C52.6132343,33.0180952 50.5182887,31.9463494 49.23,30.13 C48.3,29 37,10 36.56,9.25 C36.22,8.67 35.38,8.56 33.45,8.82 C31.96,9.02 29.53,9.54 29.51,9.54 L28.4,5 C28.51,5 31.05,4.43 32.75,4.21 C34.45,3.99 38.81,3.35 40.94,7 C42.48,9.64 52.32,26.08 53.23,27.36 C53.6460433,28.1450838 54.5592559,28.5262872 55.41,28.27 C57,28 76.84,24.12 77.44,24 C77.71,24 78.81,23.33 78.81,21.44 C78.81,19.55 78.96,15.02 79.09,11.34 L75,11.34 L81.27,1.14 L87.55,11.37 Z M37.55,15.68 L0,25.8 L39.34,18.72 L37.55,15.68 Z M40.77,21.06 L11.26,29.63 L42.65,24.23 L40.77,21.06 Z M20.45,33.72 L46.11,29.88 C45.57,29.03 44.88,27.88 44.11,26.63 L20.45,33.72 Z" fill="#F7971D"></path>
                <path d="M65.85,38.1 C65.9721585,40.0867026 64.4631887,41.7974207 62.4767769,41.9242209 C60.4903652,42.0510211 58.7761259,40.5460526 58.6446847,38.5599426 C58.5132435,36.5738325 60.0142025,34.8560815 62,34.72 L62.21,34.72 C63.1383838,34.6903633 64.0404735,35.0309776 64.7175824,35.6668223 C65.3946913,36.3026669 65.7912803,37.1815874 65.82,38.11 L65.85,38.1 Z M75.27,32 C73.4226074,32.1143229 72.0060575,33.6853983 72.0829359,35.5347276 C72.1598142,37.3840569 73.7018733,38.8321401 75.5523805,38.7927379 C77.4028876,38.7533357 78.8819099,37.2409256 78.88,35.39 C78.8512803,34.4615874 78.4546913,33.5826669 77.7775824,32.9468223 C77.1004735,32.3109776 76.1983838,31.9703633 75.27,32 Z" fill="#FFFFFF"></path>
            </g>
        </g>
    </g>
</svg>