<?xml version="1.0" encoding="UTF-8"?>
<svg width="40px" height="40px" viewBox="0 0 40 40" version="1.1" xmlns="http://www.w3.org/2000/svg" xmlns:xlink="http://www.w3.org/1999/xlink">
    <!-- Generator: Sketch 48.2 (47327) - http://www.bohemiancoding.com/sketch -->
    <title>calendar</title>
    <desc>Created with Sketch.</desc>
    <defs></defs>
    <g id="Symbols" stroke="none" stroke-width="1" fill="none" fill-rule="evenodd">
        <g id="calendar">
            <g transform="translate(5.000000, 2.000000)">
                <path d="M2,10 L2,29 L26,29 L26,10 L2,10 Z M23,4 L26,4 C27.1045695,4 28,4.8954305 28,6 L28,10 L28,29 C28,30.1045695 27.1045695,31 26,31 L2,31 C0.8954305,31 1.3527075e-16,30.1045695 0,29 L0,10 L0,6 C-1.3527075e-16,4.8954305 0.8954305,4 2,4 L5,4 L5,2 C5,0.8954305 5.8954305,2.02906125e-16 7,0 C8.1045695,-2.02906125e-16 9,0.8954305 9,2 L9,4 L19,4 L19,2 C19,0.8954305 19.8954305,2.02906125e-16 21,0 C22.1045695,-2.02906125e-16 23,0.8954305 23,2 L23,4 Z" id="Combined-Shape" fill="#35495E" fill-rule="nonzero"></path>
                <g id="currency" transform="translate(11.000000, 19.000000)">
                    <circle id="Oval-2" fill="#F8981D" cx="9" cy="9" r="9"></circle>
                    <path d="M11.4757692,5.16184615 L11.4757692,6.95630769 C10.8028428,6.5658442 10.1050036,6.37061538 9.38223077,6.37061538 C9.05822915,6.37061538 8.81107777,6.43707626 8.64076923,6.57 C8.47046069,6.70292374 8.38530769,6.87322973 8.38530769,7.08092308 C8.38530769,7.28861642 8.48915281,7.47346073 8.69684615,7.63546154 C8.9045395,7.79746235 9.21607485,7.96984524 9.63146154,8.15261538 C9.88900129,8.26892366 10.1029222,8.37069187 10.2732308,8.45792308 C10.4435393,8.54515428 10.6387681,8.66561462 10.8589231,8.81930769 C11.079078,8.97300077 11.2535378,9.13499915 11.3823077,9.30530769 C11.5110776,9.47561624 11.6211534,9.68538337 11.7125385,9.93461538 C11.8039235,10.1838474 11.8496154,10.4538447 11.8496154,10.7446154 C11.8496154,11.3760032 11.6481559,11.911844 11.2452308,12.3521538 C10.8423057,12.7924637 10.2960804,13.0790763 9.60653846,13.212 L9.60653846,14.6575385 L8.09869231,14.6575385 L8.09869231,13.2493846 C7.4091504,13.1829227 6.83592536,13.0209244 6.379,12.7633846 L6.379,10.8318462 C7.13500378,11.3801566 7.94084188,11.6543077 8.79653846,11.6543077 C9.08730915,11.6543077 9.32822981,11.5774623 9.51930769,11.4237692 C9.71038557,11.2700762 9.80592308,11.0686166 9.80592308,10.8193846 C9.80592308,10.7363073 9.79346166,10.657385 9.76853846,10.5826154 C9.74361526,10.5078458 9.69792341,10.4372311 9.63146154,10.3707692 C9.56499967,10.3043074 9.5006157,10.248231 9.43830769,10.2025385 C9.37599969,10.1568459 9.28461599,10.1028465 9.16415385,10.0405385 C9.04369171,9.97823046 8.94192349,9.9263079 8.85884615,9.88476923 C8.77576882,9.84323056 8.65323158,9.7850773 8.49123077,9.71030769 C8.32922996,9.63553809 8.19838511,9.57738482 8.09869231,9.53584615 C7.55868961,9.28661414 7.12461703,8.9792326 6.79646154,8.61369231 C6.46830605,8.24815202 6.30423077,7.76215688 6.30423077,7.15569231 C6.30423077,6.5159968 6.5160748,5.98223291 6.93976923,5.55438462 C7.36346366,5.12653632 7.95330391,4.86692353 8.70930769,4.77553846 L8.70930769,3.34246154 L10.2296154,3.34246154 L10.2296154,4.80046154 C10.6699253,4.86692341 11.0853057,4.98738374 11.4757692,5.16184615 Z" id="$" fill="#FFFFFF"></path>
                </g>
            </g>
        </g>
    </g>
</svg>