<?xml version="1.0" encoding="UTF-8"?>
<svg width="40px" height="40px" viewBox="0 0 40 40" version="1.1" xmlns="http://www.w3.org/2000/svg" xmlns:xlink="http://www.w3.org/1999/xlink">
    <!-- Generator: Sketch 48.2 (47327) - http://www.bohemiancoding.com/sketch -->
    <title>mouse</title>
    <desc>Created with Sketch.</desc>
    <defs>
        <path d="M14.3333333,8.125 L8.33333333,8.125 L8.33333333,7.125 C8.33333333,3.08112469 10.4782121,0.343595693 14.3333333,0.125 L14.3333333,8.125 Z" id="path-1"></path>
    </defs>
    <g id="Symbols" stroke="none" stroke-width="1" fill="none" fill-rule="evenodd">
        <g id="mouse">
            <g transform="translate(2.000000, 2.000000)">
                <g id="body" transform="translate(10.666667, 8.875000)">
                    <path d="M6.33333333,8.125 L0.333333333,8.125 L0.333333333,7.125 C0.333333333,3.08112469 2.4782121,0.343595693 6.33333333,0.125 L6.33333333,8.125 Z" id="Shape" fill="#35495E"></path>
                    <g id="Shape" transform="translate(11.333333, 4.125000) scale(-1, 1) translate(-11.333333, -4.125000) ">
                        <use fill="#35495E" fill-rule="evenodd" xlink:href="#path-1"></use>
                        <path stroke="#35495E" stroke-width="2" d="M13.3333333,7.125 L13.3333333,1.26553942 C10.7704187,1.83013014 9.33333333,3.9174348 9.33333333,7.125 L13.3333333,7.125 Z"></path>
                    </g>
                    <path d="M0.333333333,8.125 L14.3333333,8.125 L14.3333333,13.125 C14.3333333,16.8664685 11.1846792,20.125 7.33333333,20.125 C3.47951814,20.125 0.333333333,16.8666628 0.333333333,13.125 L0.333333333,8.125 Z" id="Shape" fill="#F8981D"></path>
                </g>
                <path d="M19,2.03074198 L19,9 L17,9 L17,1 C17,0.44771525 17.4477153,0 18,0 C27.9411255,0 36,8.0588745 36,18 C36,27.9411255 27.9411255,36 18,36 C8.0588745,36 0,27.9411255 0,18 C0,11.712626 3.23679035,6.09079821 8.51019847,3.12816603 C8.99169908,2.85765612 9.60132405,3.02869787 9.87183397,3.51019847 C10.1423439,3.99169908 9.97130213,4.60132405 9.48980153,4.87183397 C4.85143134,7.47769803 2,12.430214 2,18 C2,26.836556 9.163444,34 18,34 C26.836556,34 34,26.836556 34,18 C34,9.49929467 27.3707297,2.54693838 19,2.03074198 Z" id="tail" fill="#35495E" fill-rule="nonzero"></path>
            </g>
        </g>
    </g>
</svg>