<?xml version="1.0" encoding="UTF-8"?>
<svg width="32px" height="32px" viewBox="0 0 32 32" version="1.1" xmlns="http://www.w3.org/2000/svg" xmlns:xlink="http://www.w3.org/1999/xlink">
    <!-- Generator: Sketch 48.2 (47327) - http://www.bohemiancoding.com/sketch -->
    <title>linkedin</title>
    <desc>Created with Sketch.</desc>
    <defs></defs>
    <g id="Symbols" stroke="none" stroke-width="1" fill="none" fill-rule="evenodd">
        <g id="linkedin" fill="#007BB6" fill-rule="nonzero">
            <path d="M15.998494,1 C7.715,1 1,7.715 1,15.998494 C1,24.281988 7.715,30.996988 15.998494,30.996988 C24.281988,30.996988 30.9970482,24.281988 30.9970482,15.998494 C30.996988,7.715 24.2818675,1 15.998494,1 Z M11.9968675,23.2495783 L8.70379518,23.2495783 L8.70379518,12.6106024 L11.9968675,12.6106024 L11.9968675,23.2495783 Z M10.3346386,11.2173494 C9.25915663,11.2173494 8.38728916,10.3383735 8.38728916,9.25427711 C8.38728916,8.17006024 9.25927711,7.29114458 10.3346386,7.29114458 C11.41,7.29114458 12.2818675,8.17006024 12.2818675,9.25427711 C12.2819277,10.3384337 11.4100602,11.2173494 10.3346386,11.2173494 Z M24.3377108,23.2495783 L21.0605422,23.2495783 L21.0605422,17.665 C21.0605422,16.1333133 20.4787349,15.2783133 19.2675904,15.2783133 C17.9494578,15.2783133 17.2608434,16.1687952 17.2608434,17.665 L17.2608434,23.2495783 L14.1024096,23.2495783 L14.1024096,12.6106024 L17.2608434,12.6106024 L17.2608434,14.043494 C17.2608434,14.043494 18.2109036,12.2860843 20.4668072,12.2860843 C22.7227711,12.2860843 24.3377108,13.6635542 24.3377108,16.5131325 L24.3377108,23.2495783 Z" id="Shape"></path>
        </g>
    </g>
</svg>