<?xml version="1.0" encoding="UTF-8"?>
<svg width="32px" height="32px" viewBox="0 0 32 32" version="1.1" xmlns="http://www.w3.org/2000/svg" xmlns:xlink="http://www.w3.org/1999/xlink">
    <!-- Generator: Sketch 48.2 (47327) - http://www.bohemiancoding.com/sketch -->
    <title>reddit</title>
    <desc>Created with Sketch.</desc>
    <defs></defs>
    <g id="Symbols" stroke="none" stroke-width="1" fill="none" fill-rule="evenodd">
        <g id="reddit" fill="#FF5700" fill-rule="nonzero">
            <g transform="translate(1.000000, 1.000000)" id="Shape">
                <path d="M18.3314732,19.5368304 C18.5100446,19.7154018 18.5100446,19.8883929 18.3314732,20.0558036 C17.6395089,20.7477679 16.5290179,21.09375 15,21.09375 C13.4709821,21.09375 12.3604911,20.7477679 11.6685268,20.0558036 C11.4899554,19.8883929 11.4899554,19.7154018 11.6685268,19.5368304 C11.7354911,19.4698661 11.8191964,19.4363839 11.9196429,19.4363839 C12.0200893,19.4363839 12.1037946,19.4698661 12.1707589,19.5368304 C12.7064732,20.0837054 13.6495536,20.3571429 15,20.3571429 C16.3392857,20.3571429 17.2823661,20.0837054 17.8292411,19.5368304 C17.8962054,19.4698661 17.9799107,19.4363839 18.0803571,19.4363839 C18.1808036,19.4363839 18.2645089,19.4698661 18.3314732,19.5368304 Z M13.1919643,16.5066964 C13.1919643,16.9196429 13.046875,17.2712054 12.7566964,17.5613839 C12.4665179,17.8515625 12.1149554,17.9966518 11.7020089,17.9966518 C11.2890625,17.9966518 10.9347098,17.8515625 10.6389509,17.5613839 C10.343192,17.2712054 10.1953125,16.9196429 10.1953125,16.5066964 C10.1953125,16.0825893 10.343192,15.7254464 10.6389509,15.4352679 C10.9347098,15.1450893 11.2890625,15 11.7020089,15 C12.1149554,15 12.4665179,15.1478795 12.7566964,15.4436384 C13.046875,15.7393973 13.1919643,16.09375 13.1919643,16.5066964 Z M19.8046875,16.5066964 C19.8046875,16.9196429 19.656808,17.2712054 19.3610491,17.5613839 C19.0652902,17.8515625 18.7109375,17.9966518 18.2979911,17.9966518 C17.8850446,17.9966518 17.5334821,17.8515625 17.2433036,17.5613839 C16.953125,17.2712054 16.8080357,16.9196429 16.8080357,16.5066964 C16.8080357,16.09375 16.953125,15.7393973 17.2433036,15.4436384 C17.5334821,15.1478795 17.8850446,15 18.2979911,15 C18.7109375,15 19.0652902,15.1450893 19.3610491,15.4352679 C19.656808,15.7254464 19.8046875,16.0825893 19.8046875,16.5066964 Z M24.0066964,14.4977679 C24.0066964,13.9508929 23.8113839,13.4821429 23.4207589,13.0915179 C23.0301339,12.7008929 22.5558036,12.5055804 21.9977679,12.5055804 C21.4397321,12.5055804 20.9598214,12.7064732 20.5580357,13.1082589 C19.1071429,12.1037946 17.3716518,11.5680804 15.3515625,11.5011161 L16.40625,6.76339286 L19.7544643,7.51674107 C19.7544643,7.9296875 19.8995536,8.28125 20.1897321,8.57142857 C20.4799107,8.86160714 20.8314732,9.00669643 21.2444196,9.00669643 C21.6573661,9.00669643 22.0117187,8.85881696 22.3074777,8.56305804 C22.6032366,8.26729911 22.7511161,7.91294643 22.7511161,7.5 C22.7511161,7.08705357 22.6032366,6.73270089 22.3074777,6.43694196 C22.0117187,6.14118304 21.6573661,5.99330357 21.2444196,5.99330357 C20.6417411,5.99330357 20.1953125,6.27232143 19.9051339,6.83035714 L16.2053571,6.01004464 C15.9933036,5.95424107 15.8537946,6.04352679 15.7868304,6.27790179 L14.6316964,11.5011161 C12.6227679,11.5792411 10.8984375,12.1205357 9.45870536,13.125 C9.06808036,12.7120536 8.58258929,12.5055804 8.00223214,12.5055804 C7.44419643,12.5055804 6.96986607,12.7008929 6.57924107,13.0915179 C6.18861607,13.4821429 5.99330357,13.9508929 5.99330357,14.4977679 C5.99330357,14.8883929 6.09654018,15.2455357 6.30301339,15.5691964 C6.50948661,15.8928571 6.78571429,16.1383929 7.13169643,16.3058036 C7.06473214,16.6071429 7.03125,16.9196429 7.03125,17.2433036 C7.03125,18.828125 7.8125,20.1841518 9.375,21.3113839 C10.9375,22.4386161 12.8180804,23.0022321 15.0167411,23.0022321 C17.2265625,23.0022321 19.1127232,22.4386161 20.6752232,21.3113839 C22.2377232,20.1841518 23.0189732,18.828125 23.0189732,17.2433036 C23.0189732,16.8861607 22.9799107,16.5680804 22.9017857,16.2890625 C23.2366071,16.1216518 23.5044643,15.8789062 23.7053571,15.5608259 C23.90625,15.2427455 24.0066964,14.8883929 24.0066964,14.4977679 Z M30,15 C30,17.03125 29.6037946,18.9732143 28.8113839,20.8258929 C28.0189732,22.6785714 26.953125,24.2745536 25.6138393,25.6138393 C24.2745536,26.953125 22.6785714,28.0189732 20.8258929,28.8113839 C18.9732143,29.6037946 17.03125,30 15,30 C12.96875,30 11.0267857,29.6037946 9.17410714,28.8113839 C7.32142857,28.0189732 5.72544643,26.953125 4.38616071,25.6138393 C3.046875,24.2745536 1.98102679,22.6785714 1.18861607,20.8258929 C0.396205357,18.9732143 0,17.03125 0,15 C0,12.96875 0.396205357,11.0267857 1.18861607,9.17410714 C1.98102679,7.32142857 3.046875,5.72544643 4.38616071,4.38616071 C5.72544643,3.046875 7.32142857,1.98102679 9.17410714,1.18861607 C11.0267857,0.396205357 12.96875,0 15,0 C17.03125,0 18.9732143,0.396205357 20.8258929,1.18861607 C22.6785714,1.98102679 24.2745536,3.046875 25.6138393,4.38616071 C26.953125,5.72544643 28.0189732,7.32142857 28.8113839,9.17410714 C29.6037946,11.0267857 30,12.96875 30,15 Z"></path>
            </g>
        </g>
    </g>
</svg>