<?xml version="1.0" encoding="utf-8"?>
<!-- Generator: Adobe Illustrator 21.0.0, SVG Export Plug-In . SVG Version: 6.00 Build 0)  -->
<svg version="1.1" id="Layer_1" xmlns="http://www.w3.org/2000/svg" xmlns:xlink="http://www.w3.org/1999/xlink" x="0px" y="0px"
	 viewBox="0 0 32 32" style="enable-background:new 0 0 32 32;" xml:space="preserve">
<style type="text/css">
	.st0{fill:#99A4AE;}
</style>
<title>Combined Shape</title>
<desc>Created with Sketch.</desc>
<g id="_x2D_">
	<g id="process" transform="translate(-1175.000000, -3308.000000)">
		<g id="footer" transform="translate(0.000000, 3258.000000)">
			<g id="Group-11" transform="translate(1095.000000, 50.000000)">
				<path id="Combined-Shape" class="st0" d="M96,31c-8.3,0-15-6.7-15-15S87.7,1,96,1s15,6.7,15,15S104.3,31,96,31z M99.2,16.4
					c0-0.3,0-0.6-0.1-1h-5.9v2.1h3.5c0,0.3-0.1,0.5-0.3,0.8c-0.1,0.3-0.3,0.6-0.6,0.9c-0.3,0.3-0.6,0.5-1.1,0.7
					c-0.5,0.2-1,0.3-1.6,0.3c-1.1,0-2-0.4-2.7-1.1c-0.8-0.8-1.1-1.7-1.1-2.8s0.4-2,1.1-2.8c0.8-0.8,1.7-1.1,2.7-1.1
					c1,0,1.8,0.3,2.5,1l1.7-1.6c-1.2-1.1-2.5-1.6-4.2-1.6c-1.7,0-3.2,0.6-4.4,1.8S87,14.5,87,16.2s0.6,3.2,1.8,4.4
					c1.2,1.2,2.7,1.8,4.4,1.8c1.8,0,3.2-0.6,4.3-1.7C98.6,19.6,99.2,18.1,99.2,16.4z M104.8,16.8h1.8v-1.8h-1.8v-1.8H103v1.8h-1.8
					v1.8h1.8v1.8h1.8V16.8z"/>
			</g>
		</g>
	</g>
</g>
</svg>
