<?xml version="1.0" encoding="utf-8"?>
<!-- Generator: Adobe Illustrator 21.0.0, SVG Export Plug-In . SVG Version: 6.00 Build 0)  -->
<svg version="1.1" id="Layer_1" xmlns="http://www.w3.org/2000/svg" xmlns:xlink="http://www.w3.org/1999/xlink" x="0px" y="0px"
	 viewBox="0 0 32 32" style="enable-background:new 0 0 32 32;" xml:space="preserve">
<style type="text/css">
	.st0{fill:#99A4AE;}
</style>
<title>Combined Shape</title>
<desc>Created with Sketch.</desc>
<g id="_x2D_">
	<g id="process" transform="translate(-1135.000000, -3308.000000)">
		<g id="footer" transform="translate(0.000000, 3258.000000)">
			<g id="Group-11" transform="translate(1095.000000, 50.000000)">
				<g id="Group-27" transform="translate(40.000000, 0.000000)">
					<path id="Combined-Shape" class="st0" d="M16,31C7.7,31,1,24.3,1,16S7.7,1,16,1s15,6.7,15,15S24.3,31,16,31z M23.9,12.6
						c0-1.4-1-2.5-2.3-2.5C19.9,10,18.1,10,16.3,10c-0.1,0-0.2,0-0.3,0c-0.1,0-0.2,0-0.3,0c-1.8,0-3.6,0-5.3,0.1
						c-1.3,0-2.3,1.1-2.3,2.5C8,13.8,8,14.9,8,16c0,1.1,0,2.2,0.1,3.3c0,1.4,1,2.5,2.3,2.5C12.2,22,14.1,22,16,22
						c1.9,0,3.8,0,5.6-0.1c1.3,0,2.3-1.1,2.3-2.5C24,18.2,24,17.1,24,16C24,14.9,24,13.8,23.9,12.6z M14,19v-6l5,3L14,19z"/>
				</g>
			</g>
		</g>
	</g>
</g>
</svg>
