<?xml version="1.0" encoding="UTF-8"?>
<svg width="40px" height="40px" viewBox="0 0 40 40" version="1.1" xmlns="http://www.w3.org/2000/svg" xmlns:xlink="http://www.w3.org/1999/xlink">
    <!-- Generator: Sketch 48.2 (47327) - http://www.bohemiancoding.com/sketch -->
    <title>wallet</title>
    <desc>Created with Sketch.</desc>
    <defs></defs>
    <g id="Symbols" stroke="none" stroke-width="1" fill="none" fill-rule="evenodd">
        <g id="wallet">
            <g transform="translate(4.000000, 6.000000)">
                <path d="M0.010568207,6 L0,6 L0,3 C-2.02906125e-16,1.34314575 1.34314575,7.48448398e-16 3,4.4408921e-16 L23,4.4408921e-16 C24.6568542,1.39730022e-16 26,1.34314575 26,3 L26,4 L28.1818182,4 C30.6829525,4 30.8625738,5.3196588 31,6.37037037 L31,25.6296296 C30.8632131,26.6798101 30.6829525,28 28.1818182,28 L2.81818182,28 C0.179621357,28 0,26.6798101 0,25.6296296 L0,6.37037037 C0,6.24966032 0.0023707067,6.1254006 0.010568207,6 Z M2,6 L2,26 L29,26 L29,6 L26,6 L2,6 Z" id="body" fill="#35495E"></path>
                <g id="clips" transform="translate(16.000000, 11.000000)">
                    <path d="M2,0 L14,0 C15.1045695,-2.02906125e-16 16,0.8954305 16,2 L16,8 C16,9.1045695 15.1045695,10 14,10 L2,10 C0.8954305,10 1.3527075e-16,9.1045695 0,8 L0,2 C-1.3527075e-16,0.8954305 0.8954305,2.02906125e-16 2,0 Z" id="Rectangle-4" fill="#FFA214"></path>
                    <circle id="Oval-3" fill="#FFFFFF" cx="5" cy="5" r="2"></circle>
                </g>
            </g>
        </g>
    </g>
</svg>