<?xml version="1.0" encoding="UTF-8"?>
<svg width="40px" height="40px" viewBox="0 0 40 40" version="1.1" xmlns="http://www.w3.org/2000/svg" xmlns:xlink="http://www.w3.org/1999/xlink">
    <!-- Generator: Sketch 48.2 (47327) - http://www.bohemiancoding.com/sketch -->
    <title>watch</title>
    <desc>Created with Sketch.</desc>
    <defs></defs>
    <g id="Symbols" stroke="none" stroke-width="1" fill="none" fill-rule="evenodd">
        <g id="watch" fill-rule="nonzero">
            <g transform="translate(2.000000, 2.000000)">
                <path d="M18,2 C9.17925082,2 2,9.17925082 2,18 C2,26.8207492 9.17925082,34 18,34 C26.8207492,34 34,26.8207492 34,18 C34,9.17925082 26.8207492,2 18,2 Z M18,0 C27.9253187,0 36,8.07468132 36,18 C36,27.9253187 27.9253187,36 18,36 C8.07468132,36 0,27.9253187 0,18 C0,8.07468132 8.07468132,0 18,0 Z" id="Shape" fill="#35495E"></path>
                <path d="M24,17 L19,17 L19,9 C19.1935484,7.95530386 18.2547926,7 17,7 C15.9387558,7 15,7.95530386 15,9 L15,19 C15,20.0446961 15.9387558,21 17,21 L24,21 C25.0612442,21 26,20.0446961 26,19 C26,17.6878329 25.4372559,17 24,17 Z" id="Path" fill="#F8981D"></path>
            </g>
        </g>
    </g>
</svg>