<?xml version="1.0" encoding="UTF-8"?>
<svg width="30px" height="30px" viewBox="0 0 30 30" version="1.1" xmlns="http://www.w3.org/2000/svg" xmlns:xlink="http://www.w3.org/1999/xlink">
    <!-- Generator: Sketch 48.2 (47327) - http://www.bohemiancoding.com/sketch -->
    <title>image / app</title>
    <desc>Created with Sketch.</desc>
    <defs>
        <path d="M3,0 L11,-4.4408921e-16 C12.6568542,-7.48448398e-16 14,1.34314575 14,3 L14,11 C14,12.6568542 12.6568542,14 11,14 L3,14 C1.34314575,14 -2.41183085e-16,12.6568542 -4.4408921e-16,11 L-4.4408921e-16,3 C-6.46995335e-16,1.34314575 1.34314575,-1.39730022e-16 3,-4.4408921e-16 Z" id="path-1"></path>
        <path d="M19,0 L27,-4.4408921e-16 C28.6568542,-7.48448398e-16 30,1.34314575 30,3 L30,11 C30,12.6568542 28.6568542,14 27,14 L19,14 C17.3431458,14 16,12.6568542 16,11 L16,3 C16,1.34314575 17.3431458,-1.39730022e-16 19,-4.4408921e-16 Z" id="path-2"></path>
    </defs>
    <g id="support-overview" stroke="none" stroke-width="1" fill="none" fill-rule="evenodd" transform="translate(-255.000000, -659.000000)">
        <g id="Group-9" transform="translate(255.000000, 656.000000)">
            <g id="1-copy-4">
                <g id="Group-5" transform="translate(0.000000, 3.000000)">
                    <g id="Combined-Shape">
                        <use fill="#35495E" fill-rule="evenodd" xlink:href="#path-1"></use>
                        <path stroke="#35495E" stroke-width="2" d="M3,1 C1.8954305,1 1,1.8954305 1,3 L1,11 C1,12.1045695 1.8954305,13 3,13 L11,13 C12.1045695,13 13,12.1045695 13,11 L13,3 C13,1.8954305 12.1045695,1 11,1 L3,1 Z"></path>
                    </g>
                    <g id="Combined-Shape">
                        <use fill="#35495E" fill-rule="evenodd" xlink:href="#path-2"></use>
                        <path stroke="#35495E" stroke-width="2" d="M19,1 C17.8954305,1 17,1.8954305 17,3 L17,11 C17,12.1045695 17.8954305,13 19,13 L27,13 C28.1045695,13 29,12.1045695 29,11 L29,3 C29,1.8954305 28.1045695,1 27,1 L19,1 Z"></path>
                    </g>
                    <path d="M3,16 L11,16 C12.6568542,16 14,17.3431458 14,19 L14,27 C14,28.6568542 12.6568542,30 11,30 L3,30 C1.34314575,30 -2.41183085e-16,28.6568542 -4.4408921e-16,27 L-4.4408921e-16,19 C-6.46995335e-16,17.3431458 1.34314575,16 3,16 Z" id="Rectangle" fill="#F8981D"></path>
                    <path d="M19,17 C17.8954305,17 17,17.8954305 17,19 L17,27 C17,28.1045695 17.8954305,29 19,29 L27,29 C28.1045695,29 29,28.1045695 29,27 L29,19 C29,17.8954305 28.1045695,17 27,17 L19,17 Z" id="Rectangle" stroke="#35495E" stroke-width="2"></path>
                </g>
            </g>
        </g>
    </g>
</svg>