<?xml version="1.0" encoding="UTF-8"?>
<svg width="29px" height="37px" viewBox="0 0 29 37" version="1.1" xmlns="http://www.w3.org/2000/svg" xmlns:xlink="http://www.w3.org/1999/xlink">
    <!-- Generator: Sketch 48.2 (47327) - http://www.bohemiancoding.com/sketch -->
    <title>image / calendar</title>
    <desc>Created with Sketch.</desc>
    <defs>
        <path d="M2,4 L26,4 C27.1045695,4 28,4.8954305 28,6 L28,10 L0,10 L0,6 C-1.3527075e-16,4.8954305 0.8954305,4 2,4 Z" id="path-1"></path>
        <rect id="path-2" x="5" y="0" width="4" height="8" rx="2"></rect>
        <rect id="path-3" x="19" y="0" width="4" height="8" rx="2"></rect>
    </defs>
    <g id="support-overview" stroke="none" stroke-width="1" fill="none" fill-rule="evenodd" transform="translate(-855.000000, -657.000000)">
        <g id="Group-8" transform="translate(855.000000, 656.000000)">
            <g id="1-copy-5">
                <g id="icon_7" transform="translate(0.000000, 1.000000)">
                    <g id="Rectangle">
                        <use fill="#35495E" fill-rule="evenodd" xlink:href="#path-1"></use>
                        <path stroke="#35495E" stroke-width="2" d="M1,9 L27,9 L27,6 C27,5.44771525 26.5522847,5 26,5 L2,5 C1.44771525,5 1,5.44771525 1,6 L1,9 Z"></path>
                    </g>
                    <g id="Rectangle-7">
                        <use fill="#35495E" fill-rule="evenodd" xlink:href="#path-2"></use>
                        <rect stroke="#35495E" stroke-width="1" x="5.5" y="0.5" width="3" height="7" rx="1.5"></rect>
                    </g>
                    <g id="Rectangle-7">
                        <use fill="#35495E" fill-rule="evenodd" xlink:href="#path-3"></use>
                        <rect stroke="#35495E" stroke-width="1" x="19.5" y="0.5" width="3" height="7" rx="1.5"></rect>
                    </g>
                    <path d="M2,9 C1.44771525,9 1,9.44771525 1,10 L1,29 C1,29.5522847 1.44771525,30 2,30 L26,30 C26.5522847,30 27,29.5522847 27,29 L27,10 C27,9.44771525 26.5522847,9 26,9 L2,9 Z" id="Rectangle" stroke="#35495E" stroke-width="2"></path>
                    <circle id="Oval-2" fill="#F8981D" cx="20" cy="28" r="9"></circle>
                    <path d="M22.4757692,24.1618462 L22.4757692,25.9563077 C21.8028428,25.5658442 21.1050036,25.3706154 20.3822308,25.3706154 C20.0582291,25.3706154 19.8110778,25.4370763 19.6407692,25.57 C19.4704607,25.7029237 19.3853077,25.8732297 19.3853077,26.0809231 C19.3853077,26.2886164 19.4891528,26.4734607 19.6968462,26.6354615 C19.9045395,26.7974623 20.2160748,26.9698452 20.6314615,27.1526154 C20.8890013,27.2689237 21.1029222,27.3706919 21.2732308,27.4579231 C21.4435393,27.5451543 21.6387681,27.6656146 21.8589231,27.8193077 C22.079078,27.9730008 22.2535378,28.1349991 22.3823077,28.3053077 C22.5110776,28.4756162 22.6211534,28.6853834 22.7125385,28.9346154 C22.8039235,29.1838474 22.8496154,29.4538447 22.8496154,29.7446154 C22.8496154,30.3760032 22.6481559,30.911844 22.2452308,31.3521538 C21.8423057,31.7924637 21.2960804,32.0790763 20.6065385,32.212 L20.6065385,33.6575385 L19.0986923,33.6575385 L19.0986923,32.2493846 C18.4091504,32.1829227 17.8359254,32.0209244 17.379,31.7633846 L17.379,29.8318462 C18.1350038,30.3801566 18.9408419,30.6543077 19.7965385,30.6543077 C20.0873091,30.6543077 20.3282298,30.5774623 20.5193077,30.4237692 C20.7103856,30.2700762 20.8059231,30.0686166 20.8059231,29.8193846 C20.8059231,29.7363073 20.7934617,29.657385 20.7685385,29.5826154 C20.7436153,29.5078458 20.6979234,29.4372311 20.6314615,29.3707692 C20.5649997,29.3043074 20.5006157,29.248231 20.4383077,29.2025385 C20.3759997,29.1568459 20.284616,29.1028465 20.1641538,29.0405385 C20.0436917,28.9782305 19.9419235,28.9263079 19.8588462,28.8847692 C19.7757688,28.8432306 19.6532316,28.7850773 19.4912308,28.7103077 C19.32923,28.6355381 19.1983851,28.5773848 19.0986923,28.5358462 C18.5586896,28.2866141 18.124617,27.9792326 17.7964615,27.6136923 C17.4683061,27.248152 17.3042308,26.7621569 17.3042308,26.1556923 C17.3042308,25.5159968 17.5160748,24.9822329 17.9397692,24.5543846 C18.3634637,24.1265363 18.9533039,23.8669235 19.7093077,23.7755385 L19.7093077,22.3424615 L21.2296154,22.3424615 L21.2296154,23.8004615 C21.6699253,23.8669234 22.0853057,23.9873837 22.4757692,24.1618462 Z" id="$" fill="#FFFFFF"></path>
                </g>
            </g>
        </g>
    </g>
</svg>