<svg width="32" height="32" xmlns="http://www.w3.org/2000/svg"><path d="M15.998 1C7.715 1 1 7.715 1 15.998c0 8.284 6.715 14.999 14.998 14.999 8.284 0 14.999-6.715 14.999-14.999C30.997 7.715 24.282 1 15.998 1zm-4.001 22.25H8.704V12.61h3.293v10.64zm-1.662-12.033a1.955 1.955 0 0 1-1.948-1.963c0-1.084.872-1.963 1.948-1.963 1.075 0 1.947.88 1.947 1.963a1.955 1.955 0 0 1-1.947 1.963zM24.338 23.25H21.06v-5.585c0-1.532-.582-2.387-1.793-2.387-1.319 0-2.007.89-2.007 2.387v5.585h-3.159V12.61h3.159v1.433s.95-1.757 3.206-1.757c2.256 0 3.87 1.378 3.87 4.227v6.737z" fill="#007BB6"/></svg>