<?xml version="1.0" encoding="UTF-8"?>
<svg width="46px" height="34px" viewBox="0 0 46 34" version="1.1" xmlns="http://www.w3.org/2000/svg" xmlns:xlink="http://www.w3.org/1999/xlink">
    <!-- Generator: Sketch 47 (45396) - http://www.bohemiancoding.com/sketch -->
    <title>icon / message</title>
    <desc>Created with Sketch.</desc>
    <defs>
        <path d="M3,0 L33,0 L33,-4.4408921e-16 C34.1045695,-6.46995335e-16 35,0.8954305 35,2 L35,10 L1,10 L1,2 L1,2 C1,0.8954305 1.8954305,2.02906125e-16 3,0 L3,0 Z M6,7 C7.1045695,7 8,6.1045695 8,5 C8,3.8954305 7.1045695,3 6,3 C4.8954305,3 4,3.8954305 4,5 C4,6.1045695 4.8954305,7 6,7 Z M12,7 C13.1045695,7 14,6.1045695 14,5 C14,3.8954305 13.1045695,3 12,3 C10.8954305,3 10,3.8954305 10,5 C10,6.1045695 10.8954305,7 12,7 Z M18,7 C19.1045695,7 20,6.1045695 20,5 C20,3.8954305 19.1045695,3 18,3 C16.8954305,3 16,3.8954305 16,5 C16,6.1045695 16.8954305,7 18,7 Z" id="path-1"></path>
    </defs>
    <g id="Symbols" stroke="none" stroke-width="1" fill="none" fill-rule="evenodd">
        <g id="message">
            <g id="Group-5" transform="translate(5.000000, 1.000000)">
                <g id="Combined-Shape">
                    <use fill="#35495E" fill-rule="evenodd" xlink:href="#path-1"></use>
                    <path stroke="#35495E" stroke-width="2" d="M2,9 L34,9 L34,2 C34,1.44771525 33.5522847,1 33,1 L3,1 C2.44771525,1 2,1.44771525 2,2 L2,9 Z M6,8 C4.34314575,8 3,6.65685425 3,5 C3,3.34314575 4.34314575,2 6,2 C7.65685425,2 9,3.34314575 9,5 C9,6.65685425 7.65685425,8 6,8 Z M12,8 C10.3431458,8 9,6.65685425 9,5 C9,3.34314575 10.3431458,2 12,2 C13.6568542,2 15,3.34314575 15,5 C15,6.65685425 13.6568542,8 12,8 Z M18,8 C16.3431458,8 15,6.65685425 15,5 C15,3.34314575 16.3431458,2 18,2 C19.6568542,2 21,3.34314575 21,5 C21,6.65685425 19.6568542,8 18,8 Z"></path>
                </g>
                <path d="M2,1 C1.44771525,1 1,1.44771525 1,2 L1,30 C1,30.5522847 1.44771525,31 2,31 L34,31 C34.5522847,31 35,30.5522847 35,30 L35,2 C35,1.44771525 34.5522847,1 34,1 L2,1 Z" id="Rectangle" stroke="#35495E" stroke-width="2"></path>
                <g id="user1" transform="translate(10.000000, 13.000000)" fill-rule="nonzero" fill="#F8981D">
                    <path d="M15.7058953,12.8449385 C15.494672,12.2045066 15.1117981,11.5585022 14.5470989,11.1825624 C13.4605356,10.453757 12.1945547,10.064985 10.9704378,9.64878271 C10.6751368,9.54424161 10.3750979,9.43028239 10.1052337,9.2681338 C9.86430165,9.12348721 9.77385502,8.82681652 9.71789384,8.56624861 C9.69319481,8.42843016 9.67804917,8.28700143 9.67020451,8.14788799 C10.5578552,6.92090351 11.1466709,4.9184548 11.1466709,3.27652377 C11.1466709,0.714089504 9.71381617,0 7.94659243,0 C6.17901917,0 4.74647513,0.713029965 4.74647513,3.27546423 C4.74647513,4.97614077 5.37773742,7.06233224 6.31886387,8.27424773 C6.31028134,8.3699201 6.2990192,8.46559248 6.28197066,8.56083319 C6.22589297,8.82136186 6.13556285,9.11249941 5.89478609,9.25710675 C5.62461127,9.41929458 5.32461119,9.52222676 5.02927131,9.62676786 C3.8051545,10.0429309 2.53921244,10.4099236 1.45292091,11.1387289 C0.887911056,11.5146687 0.505231348,12.2045066 0.294163335,12.8449385 C0.076804057,13.5096222 -0.0120891691,14.3328834 0.00130889248,15 L7.99967982,15 L15.9986721,15 C16.0121867,14.3329226 15.9230993,13.5096614 15.7058953,12.8449385 Z" id="Shape"></path>
                </g>
            </g>
        </g>
    </g>
</svg>