<svg width="32" height="32" xmlns="http://www.w3.org/2000/svg"><path d="M19.331 20.537c.179.178.179.351 0 .519-.691.692-1.802 1.038-3.331 1.038s-2.64-.346-3.331-1.038c-.179-.168-.179-.34 0-.52a.34.34 0 0 1 .25-.1c.101 0 .185.034.252.1.535.548 1.479.821 2.829.821 1.34 0 2.282-.273 2.83-.82a.34.34 0 0 1 .25-.1c.1 0 .185.033.251.1zm-5.139-3.03c0 .413-.145.764-.435 1.054-.29.29-.642.436-1.055.436-.413 0-.767-.145-1.063-.436a1.423 1.423 0 0 1-.444-1.054c0-.424.148-.782.444-1.072.296-.29.65-.435 1.063-.435.413 0 .765.148 1.055.444.29.295.435.65.435 1.063zm6.613 0c0 .413-.148.764-.444 1.054-.296.29-.65.436-1.063.436-.413 0-.765-.145-1.055-.436a1.436 1.436 0 0 1-.435-1.054c0-.413.145-.768.435-1.063.29-.296.642-.444 1.055-.444.413 0 .767.145 1.063.435.296.29.444.648.444 1.072zm4.202-2.01c0-.546-.196-1.015-.586-1.405a1.937 1.937 0 0 0-1.423-.586c-.558 0-1.038.2-1.44.602-1.45-1.004-3.186-1.54-5.206-1.607l1.054-4.738 3.348.754c0 .413.146.764.436 1.054.29.29.641.436 1.054.436a1.45 1.45 0 0 0 1.063-.444 1.45 1.45 0 0 0 .444-1.063 1.45 1.45 0 0 0-.444-1.063 1.45 1.45 0 0 0-1.063-.444c-.602 0-1.049.28-1.339.837l-3.7-.82c-.212-.056-.351.034-.418.268L15.632 12.5c-2.01.078-3.734.62-5.173 1.624a1.923 1.923 0 0 0-1.457-.62c-.558 0-1.032.196-1.423.587-.39.39-.586.859-.586 1.406 0 .39.104.748.31 1.071.206.324.483.57.829.737a4.31 4.31 0 0 0-.1.937c0 1.585.78 2.941 2.343 4.068 1.563 1.128 3.443 1.691 5.642 1.691 2.21 0 4.096-.563 5.658-1.69 1.563-1.128 2.344-2.484 2.344-4.069 0-.357-.04-.675-.117-.954a1.983 1.983 0 0 0 1.105-1.791zM31 16c0 2.031-.396 3.973-1.189 5.826-.792 1.853-1.858 3.449-3.197 4.788-1.34 1.34-2.935 2.405-4.788 3.197A14.663 14.663 0 0 1 16 31c-2.031 0-3.973-.396-5.826-1.189-1.853-.792-3.449-1.858-4.788-3.197-1.34-1.34-2.405-2.935-3.197-4.788A14.663 14.663 0 0 1 1 16c0-2.031.396-3.973 1.189-5.826.792-1.853 1.858-3.449 3.197-4.788 1.34-1.34 2.935-2.405 4.788-3.197A14.663 14.663 0 0 1 16 1c2.031 0 3.973.396 5.826 1.189 1.853.792 3.449 1.858 4.788 3.197 1.34 1.34 2.405 2.935 3.197 4.788A14.663 14.663 0 0 1 31 16z" fill="#FF5700"/></svg>