<svg xmlns="http://www.w3.org/2000/svg" viewBox="0 0 32 32"><path d="M16 31C7.7 31 1 24.3 1 16S7.7 1 16 1s15 6.7 15 15-6.7 15-15 15zm3.2-14.6c0-.3 0-.6-.1-1h-5.9v2.1h3.5c0 .3-.1.5-.3.8-.1.3-.3.6-.6.9-.3.3-.6.5-1.1.7-.5.2-1 .3-1.6.3-1.1 0-2-.4-2.7-1.1-.8-.8-1.1-1.7-1.1-2.8s.4-2 1.1-2.8c.8-.8 1.7-1.1 2.7-1.1 1 0 1.8.3 2.5 1l1.7-1.6c-1.2-1.1-2.5-1.6-4.2-1.6-1.7 0-3.2.6-4.4 1.8S7 14.5 7 16.2s.6 3.2 1.8 4.4c1.2 1.2 2.7 1.8 4.4 1.8 1.8 0 3.2-.6 4.3-1.7 1.1-1.1 1.7-2.6 1.7-4.3zm5.6.4h1.8V15h-1.8v-1.8H23V15h-1.8v1.8H23v1.8h1.8v-1.8z" fill="#99a4ae"/></svg>