<svg xmlns="http://www.w3.org/2000/svg" viewBox="0 0 32 32"><path d="M16 31C7.7 31 1 24.3 1 16S7.7 1 16 1s15 6.7 15 15-6.7 15-15 15zm8-18.6c-.6.2-1.1.4-1.8.5.6-.4 1.1-1 1.4-1.7-.6.3-1.3.6-2 .7-.6-.6-1.4-1-2.2-1-1.7 0-3.1 1.4-3.1 3 0 .2 0 .5.1.7-2.6-.1-4.8-1.3-6.3-3.2-.3.4-.4 1-.4 1.5 0 1.1.5 2 1.4 2.5-.5 0-1-.2-1.4-.4 0 1.5 1.1 2.7 2.5 3-.3.1-.5.1-.8.1-.2 0-.4 0-.6-.1.4 1.2 1.5 2.1 2.9 2.1-1.1.8-2.4 1.3-3.8 1.3h-.7c1.4.9 3 1.4 4.7 1.4 5.7 0 8.8-4.6 8.8-8.6v-.4c.4-.2.9-.8 1.3-1.4z" fill="#99a4ae"/></svg>