<svg width="32" height="32" xmlns="http://www.w3.org/2000/svg"><path d="M16 31C7.716 31 1 24.284 1 16 1 7.716 7.716 1 16 1c8.284 0 15 6.716 15 15 0 8.284-6.716 15-15 15zm8-18.58a6.199 6.199 0 0 1-1.768.477 3.044 3.044 0 0 0 1.354-1.676 6.22 6.22 0 0 1-1.955.736A3.096 3.096 0 0 0 19.385 11c-1.7 0-3.077 1.356-3.077 3.03 0 .237.027.468.08.69a8.784 8.784 0 0 1-6.344-3.165 2.978 2.978 0 0 0-.416 1.523c0 1.05.543 1.978 1.369 2.521a3.106 3.106 0 0 1-1.394-.379v.038c0 1.468 1.06 2.692 2.468 2.971a3.14 3.14 0 0 1-1.39.052 3.075 3.075 0 0 0 2.875 2.103 6.236 6.236 0 0 1-3.822 1.297A6.36 6.36 0 0 1 9 21.639 8.809 8.809 0 0 0 13.717 23c5.661 0 8.756-4.616 8.756-8.62 0-.13-.002-.262-.008-.392A6.18 6.18 0 0 0 24 12.42z" fill="#56A3D9" fill-rule="evenodd"/></svg>