<?xml version="1.0" encoding="UTF-8"?>
<svg width="34px" height="28px" viewBox="0 0 34 28" version="1.1" xmlns="http://www.w3.org/2000/svg" xmlns:xlink="http://www.w3.org/1999/xlink">
    <!-- Generator: Sketch 48.2 (47327) - http://www.bohemiancoding.com/sketch -->
    <title>image / wallet</title>
    <desc>Created with Sketch.</desc>
    <defs>
        <path d="M28.1818182,24.75 L2.81818182,24.75 C0.179621357,24.75 0,23.4298101 0,22.3796296 L0,3.12037037 C0,2.0696588 0.179621357,0.75 2.81818182,0.75 L28.1818182,0.75 C30.6829525,0.75 30.8625738,2.0696588 31,3.12037037 L31,22.3796296 C30.8632131,23.4298101 30.6829525,24.75 28.1818182,24.75 Z M2,2.75 L2,22.75 L29,22.75 L29,2.75 L2,2.75 Z" id="path-1"></path>
    </defs>
    <g id="support-overview" stroke="none" stroke-width="1" fill="none" fill-rule="evenodd" transform="translate(-855.000000, -997.000000)">
        <g id="Group-7" transform="translate(855.000000, 996.000000)">
            <g id="1-copy-2">
                <g id="icon_6" transform="translate(0.000000, 1.000000)">
                    <g id="Rectangle-3" transform="translate(0.000000, 3.250000)">
                        <mask id="mask-2" fill="white">
                            <use xlink:href="#path-1"></use>
                        </mask>
                        <use id="Mask" fill="#35495E" fill-rule="nonzero" xlink:href="#path-1"></use>
                    </g>
                    <path d="M20,11 L32,11 C33.1045695,11 34,11.8954305 34,13 L34,19 C34,20.1045695 33.1045695,21 32,21 L20,21 C18.8954305,21 18,20.1045695 18,19 L18,13 C18,11.8954305 18.8954305,11 20,11 Z" id="Rectangle-4" fill="#FFA214"></path>
                    <circle id="Oval-3" fill="#FFFFFF" cx="23" cy="16" r="2"></circle>
                    <path d="M3,0 L23,0 C24.6568542,-3.04359188e-16 26,1.34314575 26,3 L26,6 L0,6 L0,3 C-2.02906125e-16,1.34314575 1.34314575,3.04359188e-16 3,0 Z" id="Rectangle-8" fill="#35495E"></path>
                </g>
            </g>
        </g>
    </g>
</svg>