<svg width="367" height="44" xmlns="http://www.w3.org/2000/svg"><g fill="none"><path d="M111 18.27h.77v-.18c0-3.29-1.39-4.51-4.51-4.51-1.1 0-3.26.27-3.26 1.53v1.22h-5.65V13.9c0-4.28 6.43-4.74 9-4.74 8.15 0 10.55 4 10.55 9.16v8.57a.93.93 0 0 0 1.06 1h1.92v4.83h-5.47c-2.25 0-3.12-1.17-3.12-2.53a9.29 9.29 0 0 1 0-1h-.1a8 8 0 0 1-7.39 4.06c-4.36 0-8.34-2.57-8.34-7.17.02-7.22 10.54-7.81 14.54-7.81zm-4.7 10.51c3.26 0 5.56-3.25 5.56-6v-.58h-1.05c-3.17 0-8.2.41-8.2 3.61.01 1.53 1.21 2.97 3.7 2.97h-.01zm18-13.21c0-.68-.38-1-1.06-1h-1.92V9.7h5.61c2.16 0 3.21.95 3.21 2.57V14h.1a9.14 9.14 0 0 1 7.91-4.78c3.69 0 6.09 1.62 7.15 4.74h.1a9.53 9.53 0 0 1 8.34-4.74c5.08 0 8 2.71 8 8.75v9a.93.93 0 0 0 1.06 1h1.87v4.83h-5.75c-2.3 0-3.26-.9-3.26-3.07V19c0-2.62-.53-4.6-3.36-4.6-3 0-5.18 2.39-5.85 5.28a9.5 9.5 0 0 0-.45 2.92v10.1h-6.09V19c0-2.48-.38-4.6-3.31-4.6s-5.13 2.39-5.9 5.32a11.11 11.11 0 0 0-.38 2.89v10.1h-6l-.02-17.14zm43.12 14.07l11.26-12.94a19.53 19.53 0 0 1 2.06-2.12v-.09a20.44 20.44 0 0 1-2.25.09h-4.41a.93.93 0 0 0-1.05 1v1.31h-5.51v-4.1c0-2.12 1-3.07 3.26-3.07h17.94v3.11l-11.28 12.93a26.53 26.53 0 0 1-2.06 2.12V28a14.08 14.08 0 0 1 2.3-.14H183c.67 0 1.05-.32 1.05-1v-1.28h5.51v4.06c0 2.16-1 3.07-3.21 3.07h-19l.07-3.07zM194 4.79c0-.68-.38-1-1.06-1h-2.06V1h3.55c2.06 0 2.93.81 2.93 2.75v25.17c0 .68.38 1 1.05 1h11.17c.67 0 1.06-.32 1.06-1V26.8h3.16V30c0 1.94-.86 2.75-2.93 2.75h-14c-2.06 0-2.93-.81-2.93-2.75L194 4.79zm32.32 4.69c6.67 0 10.12 4.83 10.12 10.46 0 .54-.1 1.53-.1 1.53h-18.52c.1 5.73 4.36 9 9.35 9a11 11 0 0 0 7.24-2.8L236 30a14.11 14.11 0 0 1-9 3.25c-7.15 0-12.61-4.87-12.61-11.86.02-7.45 5.44-11.91 11.92-11.91h.01zm6.75 9.52c-.19-4.69-3.26-7-6.81-7a8.13 8.13 0 0 0-8.3 7h15.11zm8.35-5.37a.93.93 0 0 0-1.06-1h-2V10h3.36c2 0 2.93.81 2.93 2.53v1a13.71 13.71 0 0 1-.1 1.62h.1a10.26 10.26 0 0 1 9.59-5.73c6 0 8.1 3.2 8.1 8.79v10.84c0 .68.38 1 1.06 1h2v2.66H262c-2.06 0-2.93-.81-2.93-2.75V19.09c0-3.56-.58-6.72-5.23-6.72a9.09 9.09 0 0 0-8.78 6.4 10.6 10.6 0 0 0-.38 3.07v10.87h-3.26V13.63zm36.26-4.19c5.85 0 7.86 4.24 7.86 4.24h.1a15.37 15.37 0 0 1-.1-1.71V4.65a.93.93 0 0 0-1.05-1h-2V1h3.4c2.06 0 2.93.81 2.93 2.75v25.3c0 .68.38 1 1.06 1h2v2.66h-3.36c-2 0-2.88-.86-2.88-2.53a9.9 9.9 0 0 1 .1-1.44h-.1s-2 4.51-8.3 4.51c-6.3 0-10.5-4.87-10.5-11.91s4.5-11.86 10.83-11.86l.01-.04zm8 11.86c0-4.6-2.49-9.11-7.67-9.11-4.27 0-7.77 3.38-7.77 9.11 0 5.73 3.12 9.16 7.62 9.16 3.98.04 7.77-2.67 7.77-9.12l.05-.04zm19.61-11.82c6.67 0 10.12 4.83 10.12 10.46 0 .54-.1 1.53-.1 1.53h-18.5c.1 5.73 4.36 9 9.35 9a11 11 0 0 0 7.24-2.8L315 30a14.11 14.11 0 0 1-9 3.25c-7.15 0-12.61-4.87-12.61-11.86.01-7.45 5.43-11.91 11.9-11.91zm6.77 9.52c-.19-4.69-3.26-7-6.81-7a8.13 8.13 0 0 0-8.3 7h15.11zm8.15-5.37a.93.93 0 0 0-1.06-1h-2V10h3.36c2 0 2.93.77 2.93 2.57v1.53a15.37 15.37 0 0 1-.1 1.71h.1c1.15-3.43 3.84-6 7.62-6a6.91 6.91 0 0 1 1.29.14v3a8.75 8.75 0 0 0-1.2-.09c-3.41 0-5.95 2.53-7 5.86a14.14 14.14 0 0 0-.67 4.42v9.56h-3.26l-.01-19.07zm15.06 13.48a10 10 0 0 0 7.43 3.43c2.69 0 5.08-1.22 5.08-3.61 0-5-13.52-4.06-13.52-11.37 0-4.1 3.74-6.13 8.58-6.13 2.45 0 7.34.9 7.34 4.1v1.94h-3.07v-1.03c0-1.67-2.59-2.3-4.17-2.3-3.36 0-5.37 1.08-5.37 3.29 0 5.1 13.52 3.92 13.52 11.46 0 3.79-3.64 6.36-8.44 6.36a11.79 11.79 0 0 1-9.26-4l1.88-2.14zm28.47-10.7a4.45 4.45 0 0 1-5.92 0 3.7 3.7 0 0 1-1.21-2.8 3.66 3.66 0 0 1 1.31-2.87 4.25 4.25 0 0 1 2.88-1.07 4.17 4.17 0 0 1 3 1.16 3.79 3.79 0 0 1 0 5.62l-.06-.04zm-5.4-5.11a3.14 3.14 0 0 0 0 4.61 3.59 3.59 0 0 0 4.89 0 3.1 3.1 0 0 0 1-2.32 3.07 3.07 0 0 0-1-2.28 3.55 3.55 0 0 0-4.91 0l.02-.01zm.63 4.48V11.4h2.25c.318.01.631.085.92.22.384.184.626.574.62 1a.93.93 0 0 1-.33.8 1.58 1.58 0 0 1-.8.29c.236.034.46.12.66.25.295.244.448.62.41 1v.39a.94.94 0 0 0 0 .13.62.62 0 0 0 0 .13v.12h-1.16a3 3 0 0 1-.08-.6 1.91 1.91 0 0 0-.08-.53.55.55 0 0 0-.34-.32 1.45 1.45 0 0 0-.42-.07h-.53v1.55l-1.12.02zm2.22-3.51c-.23-.07-.47-.1-.71-.09h-.3v1.27h.47a1.19 1.19 0 0 0 .67-.16.58.58 0 0 0 .24-.52.5.5 0 0 0-.37-.51v.01z" fill="#346"/><path d="M88.55 12.37h-3.47C85 16 84.8 20.7 84.8 22.46a7 7 0 0 1-5.55 7.2c-.52.08-20.36 4-22 4.23a9.09 9.09 0 0 1-1.41.11 6.81 6.81 0 0 1-5.61-2.87C49.3 30 38 11 37.56 10.25c-.34-.58-1.18-.69-3.11-.43-1.49.2-3.92.72-3.94.72L29.4 6c.11 0 2.65-.57 4.35-.79 1.7-.22 6.06-.86 8.19 2.79 1.54 2.64 11.38 19.08 12.29 20.36a1.86 1.86 0 0 0 2.18.91C58 29 77.84 25.12 78.44 25c.27-.05 1.37-.67 1.37-2.56 0-1.89.15-6.42.28-10.1H76l6.27-10.2 6.28 10.23zm-50 4.31L1 26.8l39.34-7.08-1.79-3.04zm3.22 5.38l-29.51 8.57 31.39-5.4-1.88-3.17zM21.45 34.72l25.66-3.84c-.54-.85-1.23-2-2-3.25l-23.66 7.09z" fill="#F7971D"/><path d="M66.85 39.1a3.61 3.61 0 1 1-3.61-3.39 3.5 3.5 0 0 1 3.61 3.39zm9.42-6.1a3.4 3.4 0 1 0 3.61 3.39A3.5 3.5 0 0 0 76.27 33z" fill="#346"/></g></svg>