<svg width="70" height="70" xmlns="http://www.w3.org/2000/svg"><defs><linearGradient x1="50%" y1="0%" x2="50%" y2="100%" id="a"><stop stop-color="#FB8A69" offset="0%"/><stop stop-color="#FA9800" offset="100%"/></linearGradient></defs><g transform="translate(2 5)" fill="none" fill-rule="evenodd"><path d="M0 2v50a2 2 0 0 0 2 2h58a2 2 0 0 0 2-2V2a2 2 0 0 0-2-2H2a2 2 0 0 0-2 2zm29 3a3.001 3.001 0 0 1 0 6 3.001 3.001 0 0 1 0-6zM19 5a3.001 3.001 0 0 1 0 6 3.001 3.001 0 0 1 0-6zM9 5a3.001 3.001 0 0 1 0 6 3.001 3.001 0 0 1 0-6zm51 47H2V15h58v37zM7 33h4a1 1 0 0 0 0-2H7a1 1 0 0 0 0 2zm16-12h6a1 1 0 0 0 0-2h-6a1 1 0 0 0 0 2zm-4 6h8a1 1 0 0 0 0-2h-8a1 1 0 0 0 0 2zm15.833-6h8.334c.46 0 .833-.448.833-1s-.373-1-.833-1h-8.334c-.46 0-.833.448-.833 1s.373 1 .833 1zM7 21h10a1 1 0 0 0 0-2H7a1 1 0 0 0 0 2zm0 6h6a1 1 0 0 0 0-2H7a1 1 0 0 0 0 2zm0 12h6a1 1 0 0 0 0-2H7a1 1 0 0 0 0 2z" fill="#35495E" fill-rule="nonzero"/><circle fill="#FFF" cx="50" cy="44" r="17"/><path d="M60.689 51.402l5.569 5.603a2.35 2.35 0 0 1 0 3.311 2.341 2.341 0 0 1-1.653.684c-.598 0-1.195-.23-1.648-.684l-5.578-5.612A12.94 12.94 0 0 1 50 57c-7.18 0-13-5.82-13-13s5.82-13 13-13 13 5.82 13 13c0 2.75-.854 5.301-2.311 7.402zM50 53a9 9 0 1 0 0-18 9 9 0 0 0 0 18z" fill="url(#a)"/></g></svg>