<svg width="110" height="80" xmlns="http://www.w3.org/2000/svg" xmlns:xlink="http://www.w3.org/1999/xlink"><defs><path d="M32 5c-1.354.042-2.02.708-2 2a260.316 260.316 0 0 0 0 7c-.02 1.333.646 2 2 2v4H17v-4.312C17 7.39 23.647.546 32 0v5z" id="a"/><linearGradient x1="50%" y1="0%" x2="50%" y2="100%" id="b"><stop stop-color="#FB8A69" offset="0%"/><stop stop-color="#FA9800" offset="100%"/></linearGradient></defs><g fill="none" fill-rule="evenodd"><g transform="translate(39 16)"><path d="M15 5c-1.354.042-2.02.708-2 2a260.316 260.316 0 0 0 0 7c-.02 1.333.646 2 2 2v4H0v-4.312C0 7.39 6.647.546 15 0v5z" fill="#35495E"/><g transform="matrix(-1 0 0 1 49 0)"><use fill="#35495E" xlink:href="#a"/><path stroke="#35495E" stroke-width="2" d="M31 4.14V1.104c-7.357.998-13 7.208-13 14.583V19h13v-2.119c-1.293-.333-2.024-1.354-2-2.857a258.291 258.291 0 0 1 0-7.008c-.024-1.506.707-2.52 2-2.877z"/></g><rect fill="#35495E" x="15" y="7" width="2" height="7" rx="1"/><path d="M0 22h32v10.304C32 40.94 24.803 48 16 48 7.191 48 0 40.94 0 32.304V22z" fill="url(#b)"/></g><path d="M44.32 7.711C30.775 12.19 21 24.953 21 40c0 18.778 15.222 34 34 34s34-15.222 34-34S73.778 6 55 6" stroke="#35495E" stroke-width="2" stroke-linecap="round"/><path d="M55 5a1 1 0 0 1 1 1v10h-2V6a1 1 0 0 1 1-1z" fill="#35495E"/></g></svg>