<svg width="40" height="40" xmlns="http://www.w3.org/2000/svg"><g fill="none" fill-rule="evenodd"><path d="M7 12v19h24V12H7zm21-6h3a2 2 0 0 1 2 2v23a2 2 0 0 1-2 2H7a2 2 0 0 1-2-2V8a2 2 0 0 1 2-2h3V4a2 2 0 1 1 4 0v2h10V4a2 2 0 1 1 4 0v2z" fill="#35495E" fill-rule="nonzero"/><g transform="translate(16 21)"><circle fill="#F8981D" cx="9" cy="9" r="9"/><path d="M11.476 5.162v1.794c-.673-.39-1.371-.585-2.094-.585-.324 0-.57.066-.741.199a.62.62 0 0 0-.256.51c0 .209.104.393.312.555.208.162.52.335.934.518.258.116.472.218.642.305.17.087.366.208.586.361.22.154.395.316.523.486a2.419 2.419 0 0 1 .468 1.44c0 .631-.202 1.167-.605 1.607-.403.44-.949.727-1.638.86v1.446H8.099v-1.409c-.69-.066-1.263-.228-1.72-.486v-1.931c.756.548 1.562.822 2.418.822.29 0 .531-.077.722-.23a.738.738 0 0 0 .287-.605.744.744 0 0 0-.037-.236.545.545 0 0 0-.138-.212 1.69 1.69 0 0 0-.193-.168 2.173 2.173 0 0 0-.274-.162A14.103 14.103 0 0 0 8.1 9.536c-.54-.25-.974-.557-1.303-.922-.328-.366-.492-.852-.492-1.458 0-.64.212-1.174.636-1.602.423-.427 1.013-.687 1.77-.778V3.342h1.52V4.8c.44.067.855.187 1.246.362z" fill="#FFF"/></g></g></svg>