<svg width="70" height="70" xmlns="http://www.w3.org/2000/svg"><defs><linearGradient x1="50%" y1="0%" x2="50%" y2="100%" id="a"><stop stop-color="#FB8A69" offset="0%"/><stop stop-color="#FA9800" offset="100%"/></linearGradient></defs><g fill="none" fill-rule="evenodd"><path d="M55.515 26H3.819v18c0 1.105.826 2 1.846 2H39.82v2H5.665c-2.04 0-3.693-1.79-3.693-4V13c0-2.21 1.653-4 3.693-4h48.004c2.039 0 3.692 1.79 3.692 4v20h-1.846v-7zm0-8v-5c0-1.105-.827-2-1.846-2H5.665c-1.02 0-1.846.895-1.846 2v5h51.696zM8.51 31h33.08a1 1 0 1 1 0 2H8.51a1 1 0 0 1 0-2zm0 6h12.77a1 1 0 0 1 0 2H8.511a1 1 0 0 1 0-2z" fill="#35495E" fill-rule="nonzero"/><g transform="translate(42 35)"><rect fill="url(#a)" x=".722" width="25.278" height="26" rx="4"/><text font-family="Hind-Bold, Hind" font-size="14" font-weight="bold" fill="#FFF"><tspan x="5.612" y="18">48</tspan></text></g></g></svg>