<svg width="110" height="80" xmlns="http://www.w3.org/2000/svg"><defs><linearGradient x1="50%" y1="0%" x2="50%" y2="100%" id="a"><stop stop-color="#FB8A69" offset="0%"/><stop stop-color="#FA9800" offset="100%"/></linearGradient></defs><g fill="none" fill-rule="evenodd"><path d="M78 42h21v2a6 6 0 0 0 6 6h3v12a4 4 0 0 1-4 4h-6v8l-10-8H78a4 4 0 0 1-4-4V46a4 4 0 0 1 4-4z" fill="url(#a)" transform="matrix(-1 0 0 1 182 0)"/><path d="M30 10h46a4 4 0 0 1 4 4v29a4 4 0 0 1-4 4H65v8l-10-8H30a4 4 0 0 1-4-4V14a4 4 0 0 1 4-4z" stroke="#35495E" stroke-width="2"/><path d="M35 27h36a1 1 0 0 1 0 2H35a1 1 0 0 1 0-2zm0-6h36a1 1 0 0 1 0 2H35a1 1 0 0 1 0-2zm0 12h14a1 1 0 0 1 0 2H35a1 1 0 0 1 0-2z" fill="#35495E" fill-rule="nonzero"/><path d="M7 29h16v15a6 6 0 0 0 6 6h13v5a4 4 0 0 1-4 4H24l-10 8v-8H7a4 4 0 0 1-4-4V33a4 4 0 0 1 4-4z" fill="#35495E"/></g></svg>