<svg width="70" height="70" xmlns="http://www.w3.org/2000/svg"><defs><linearGradient x1="50%" y1="0%" x2="50%" y2="100%" id="a"><stop stop-color="#FB8A69" offset="0%"/><stop stop-color="#FA9800" offset="100%"/></linearGradient></defs><g fill="none" fill-rule="evenodd"><path d="M35.503 56c.314.693.672 1.36 1.072 2H9c-1.015 0-2-.28-2-2V10c0-1.72.985-2 2-2h28l12 12v12.116c-.68.08-1.347.2-2 .357V22h-9c-2 0-2.859-.696-3-2.313V10H15v46h20.503z" fill="#35495E" fill-rule="nonzero"/><path d="M20 26h9a1 1 0 1 1 0 2h-9a1 1 0 1 1 0-2zm0 6h21a1 1 0 0 1 0 2H20a1 1 0 1 1 0-2zm0 6h16a1 1 0 0 1 0 2H20a1 1 0 1 1 0-2zm0 6h13a1 1 0 0 1 0 2H20a1 1 0 1 1 0-2z" fill="#35495E" fill-rule="nonzero"/><g transform="translate(38 36)"><circle fill="url(#a)" cx="13" cy="13" r="13"/><path d="M15 11h4a1 1 0 0 1 1 1v2a1 1 0 0 1-1 1h-4v4a1 1 0 0 1-1 1h-2a1 1 0 0 1-1-1v-4H7a1 1 0 0 1-1-1v-2a1 1 0 0 1 1-1h4V7a1 1 0 0 1 1-1h2a1 1 0 0 1 1 1v4z" fill="#FFF"/></g></g></svg>