<svg width="70" height="70" xmlns="http://www.w3.org/2000/svg"><defs><linearGradient x1="50%" y1="0%" x2="50%" y2="100%" id="a"><stop stop-color="#FB8A69" offset="0%"/><stop stop-color="#FA9800" offset="100%"/></linearGradient></defs><g fill="none" fill-rule="evenodd"><g transform="translate(5 4)"><path d="M6.595 28l5.268 23.221a1 1 0 0 0 .975.779h33.323a1 1 0 0 0 .976-.779L52.405 28H6.595zM4.09 26h50.82l-5.823 25.664A3 3 0 0 1 46.161 54H12.838a3 3 0 0 1-2.925-2.336L4.09 26z" fill="#35495E" fill-rule="nonzero"/><circle fill="#FFF" cx="45" cy="50" r="17"/><path d="M3 15h53a3 3 0 0 1 3 3v7a3 3 0 0 1-3 3H3a3 3 0 0 1-3-3v-7a3 3 0 0 1 3-3z" fill="#35495E" fill-rule="nonzero"/><path d="M23.025 1.016l1.597 1.204a1 1 0 0 1 .197 1.4L10.375 22.787a1 1 0 0 1-1.4.197L7.378 21.78a1 1 0 0 1-.197-1.4L21.625 1.213a1 1 0 0 1 1.4-.197zm12.95 0a1 1 0 0 1 1.4.197L51.82 20.38a1 1 0 0 1-.197 1.4l-1.597 1.204a1 1 0 0 1-1.4-.197L34.18 3.62a1 1 0 0 1 .197-1.4l1.597-1.204z" fill="#35495E"/></g><g transform="translate(37 41)"><circle fill="url(#a)" cx="13" cy="13" r="13"/><path d="M15 11h4a1 1 0 0 1 1 1v2a1 1 0 0 1-1 1h-4v4a1 1 0 0 1-1 1h-2a1 1 0 0 1-1-1v-4H7a1 1 0 0 1-1-1v-2a1 1 0 0 1 1-1h4V7a1 1 0 0 1 1-1h2a1 1 0 0 1 1 1v4z" fill="#FFF"/></g></g></svg>