<svg width="40" height="40" xmlns="http://www.w3.org/2000/svg" xmlns:xlink="http://www.w3.org/1999/xlink"><defs><path d="M14.333 8.125h-6v-1c0-4.044 2.145-6.781 6-7v8z" id="a"/></defs><g fill="none" fill-rule="evenodd"><path d="M19 19h-6v-1c0-4.044 2.145-6.781 6-7v8z" fill="#35495E"/><g transform="matrix(-1 0 0 1 35.333 10.875)"><use fill="#35495E" xlink:href="#a"/><path stroke="#35495E" stroke-width="2" d="M13.333 7.125v-5.86c-2.563.565-4 2.652-4 5.86h4z"/></g><path d="M13 19h14v5c0 3.741-3.149 7-7 7-3.854 0-7-3.258-7-7v-5z" fill="#F8981D"/><path d="M21 4.03V11h-2V3a1 1 0 0 1 1-1c9.941 0 18 8.059 18 18s-8.059 18-18 18S2 29.941 2 20c0-6.287 3.237-11.91 8.51-14.872a1 1 0 0 1 .98 1.744C6.85 9.478 4 14.43 4 20c0 8.837 7.163 16 16 16s16-7.163 16-16c0-8.5-6.63-15.453-15-15.97z" fill="#35495E" fill-rule="nonzero"/></g></svg>