<svg width="70" height="70" xmlns="http://www.w3.org/2000/svg" xmlns:xlink="http://www.w3.org/1999/xlink"><defs><path d="M42 21h-8a2 2 0 0 0-2 2v38a2 2 0 0 0 2 2h8a2 2 0 0 0 2-2V23a2 2 0 0 0-2-2z" id="a"/><linearGradient x1="50%" y1="0%" x2="50%" y2="100%" id="b"><stop stop-color="#FB8A69" offset="0%"/><stop stop-color="#FA9800" offset="100%"/></linearGradient></defs><g fill="none"><path d="M12 54H4a1 1 0 0 0-1 1v10a1 1 0 0 0 1 1h8a1 1 0 0 0 1-1V55a1 1 0 0 0-1-1zm16-15h-8a1 1 0 0 0-1 1v25a1 1 0 0 0 1 1h8a1 1 0 0 0 1-1V40a1 1 0 0 0-1-1z" stroke="#35495E" stroke-width="2"/><g transform="translate(2 4)"><use fill="#35495E" fill-rule="evenodd" xlink:href="#a"/><path stroke="#35495E" stroke-width="2" d="M42 22h-8a1 1 0 0 0-1 1v38a1 1 0 0 0 1 1h8a1 1 0 0 0 1-1V23a1 1 0 0 0-1-1z"/></g><path d="M52.456.875l-9.762 11.854A2 2 0 0 0 44.238 16H48v45a2 2 0 0 0 2 2h8a2 2 0 0 0 2-2V16h3.762a2 2 0 0 0 1.544-3.271L55.544.875a2 2 0 0 0-3.088 0z" fill="url(#b)" transform="translate(2 4)"/></g></svg>