<svg width="70" height="70" xmlns="http://www.w3.org/2000/svg"><defs><linearGradient x1="50%" y1="0%" x2="50%" y2="100%" id="a"><stop stop-color="#FB8A69" offset="0%"/><stop stop-color="#FA9800" offset="100%"/></linearGradient></defs><g transform="rotate(-20 11.15 6.98)" fill="none" fill-rule="evenodd"><path d="M9 70a7 7 0 1 0 0-14 7 7 0 0 0 0 14zm0 2a9 9 0 1 1 0-18 9 9 0 0 1 0 18z" fill="#35495E" fill-rule="nonzero"/><circle fill="#35495E" cx="9" cy="63" r="4"/><path d="M9 5.813L2.481 1.855A1 1 0 0 1 3.52.145l7 4.25a1 1 0 0 1 .48.855V55a1 1 0 1 1-2 0V5.813z" fill="#35495E" fill-rule="nonzero"/><rect fill="#35495E" x="17" y="30" width="32" height="25" rx="2"/><rect fill="#FFF" x="21" y="45" width="21" height="2" rx="1"/><rect fill="#FFF" x="21" y="41" width="13" height="2" rx="1"/><rect fill="url(#a)" x="17" y="10" width="21" height="16" rx="2"/><path d="M47.867 65.182l3.403-2.927a1.111 1.111 0 0 1 1.444.023.84.84 0 0 1-.026 1.285l-3.7 3.182a1.09 1.09 0 0 1-.708.255H17.02c-.563 0-1.02-.407-1.02-.91 0-.501.457-.908 1.02-.908h30.847z" fill="#35495E" fill-rule="nonzero"/></g></svg>