<svg width="110" height="80" xmlns="http://www.w3.org/2000/svg" xmlns:xlink="http://www.w3.org/1999/xlink"><defs><path d="M55 6C36.252 6 21 21.252 21 40c0 18.748 15.252 34 34 34 18.748 0 34-15.252 34-34C89 21.252 73.748 6 55 6z" id="a"/><linearGradient x1="50%" y1="0%" x2="50%" y2="100%" id="c"><stop stop-color="#FB8A69" offset="0%"/><stop stop-color="#FA9800" offset="100%"/></linearGradient></defs><g fill="none" fill-rule="evenodd"><mask id="b" fill="#fff"><use xlink:href="#a"/></mask><path stroke="#35495E" stroke-width="2" d="M55 7C36.804 7 22 21.804 22 40c0 18.196 14.804 33 33 33 18.196 0 33-14.804 33-33C88 21.804 73.196 7 55 7z"/><path d="M73 40c0-2.413-1.878-4.397-4.202-4H59V20.149C59.284 17.875 57.348 16 55 16V5h34v35H73z" fill="#35495E" mask="url(#b)"/><path d="M69 38H57V20c.194-1.045-.745-2-2-2-1.061 0-2 .955-2 2v20c0 1.045.939 2 2 2h14c1.061 0 2-.955 2-2 0-1.312-.939-2.267-2-2z" fill="url(#c)" fill-rule="nonzero"/></g></svg>