<svg width="40" height="40" xmlns="http://www.w3.org/2000/svg"><g fill="none" fill-rule="evenodd"><path d="M4.01 12H4V9a3 3 0 0 1 3-3h20a3 3 0 0 1 3 3v1h2.182c2.501 0 2.68 1.32 2.818 2.37v19.26c-.137 1.05-.317 2.37-2.818 2.37H6.818C4.18 34 4 32.68 4 31.63V12.37c0-.12.002-.245.01-.37zM6 12v20h27V12H6z" fill="#35495E"/><g transform="translate(20 17)"><path d="M2 0h12a2 2 0 0 1 2 2v6a2 2 0 0 1-2 2H2a2 2 0 0 1-2-2V2a2 2 0 0 1 2-2z" fill="#FFA214"/><circle fill="#FFF" cx="5" cy="5" r="2"/></g></g></svg>