<?xml version="1.0" encoding="UTF-8"?>
<svg width="32px" height="32px" viewBox="0 0 32 32" version="1.1" xmlns="http://www.w3.org/2000/svg" xmlns:xlink="http://www.w3.org/1999/xlink">
    <!-- Generator: Sketch 48.2 (47327) - http://www.bohemiancoding.com/sketch -->
    <title>facebook</title>
    <desc>Created with Sketch.</desc>
    <defs></defs>
    <g id="Symbols" stroke="none" stroke-width="1" fill="none" fill-rule="evenodd">
        <g id="facebook" fill="#3B5998">
            <path d="M16,31 C7.71572875,31 1,24.2842712 1,16 C1,7.71572875 7.71572875,1 16,1 C24.2842712,1 31,7.71572875 31,16 C31,24.2842712 24.2842712,31 16,31 Z M18.83375,13.5905417 L16.6039583,13.5905417 L16.6039583,12.128125 C16.6039583,11.5789167 16.9679583,11.450875 17.2243333,11.450875 C17.480125,11.450875 18.797875,11.450875 18.797875,11.450875 L18.797875,9.03645833 L16.6307917,9.028 C14.225125,9.028 13.6776667,10.82875 13.6776667,11.981125 L13.6776667,13.5905417 L12.2864167,13.5905417 L12.2864167,16.0784583 L13.6776667,16.0784583 C13.6776667,19.2713333 13.6776667,23.1184167 13.6776667,23.1184167 L16.6039583,23.1184167 C16.6039583,23.1184167 16.6039583,19.2334167 16.6039583,16.0784583 L18.5785417,16.0784583 L18.83375,13.5905417 Z" id="Combined-Shape"></path>
        </g>
    </g>
</svg>