<?xml version="1.0" encoding="utf-8"?>
<!-- Generator: Adobe Illustrator 21.0.0, SVG Export Plug-In . SVG Version: 6.00 Build 0)  -->
<svg version="1.1" id="Layer_1" xmlns="http://www.w3.org/2000/svg" xmlns:xlink="http://www.w3.org/1999/xlink" x="0px" y="0px"
	 viewBox="0 0 32 32" style="enable-background:new 0 0 32 32;" xml:space="preserve">
<style type="text/css">
	.st0{fill:#99A4AE;}
</style>
<title>Combined Shape</title>
<desc>Created with Sketch.</desc>
<g id="_x2D_">
	<g id="process" transform="translate(-1095.000000, -3308.000000)">
		<g id="footer" transform="translate(0.000000, 3258.000000)">
			<g id="Group-11" transform="translate(1095.000000, 50.000000)">
				<g id="Group-26">
					<path id="Combined-Shape" class="st0" d="M16,31C7.7,31,1,24.3,1,16S7.7,1,16,1s15,6.7,15,15S24.3,31,16,31z M18.8,13.6h-2.2
						v-1.5c0-0.5,0.4-0.7,0.6-0.7c0.3,0,1.6,0,1.6,0V9l-2.2,0c-2.4,0-3,1.8-3,3v1.6h-1.4v2.5h1.4c0,3.2,0,7,0,7h2.9c0,0,0-3.9,0-7h2
						L18.8,13.6z"/>
				</g>
			</g>
		</g>
	</g>
</g>
</svg>
