<?xml version="1.0" encoding="UTF-8"?>
<svg width="32px" height="32px" viewBox="0 0 32 32" version="1.1" xmlns="http://www.w3.org/2000/svg" xmlns:xlink="http://www.w3.org/1999/xlink">
    <!-- Generator: Sketch 48.2 (47327) - http://www.bohemiancoding.com/sketch -->
    <title>twitter</title>
    <desc>Created with Sketch.</desc>
    <defs></defs>
    <g id="Symbols" stroke="none" stroke-width="1" fill="none" fill-rule="evenodd">
        <g id="twitter" fill="#56A3D9">
            <path d="M16,31 C7.71572875,31 1,24.2842712 1,16 C1,7.71572875 7.71572875,1 16,1 C24.2842712,1 31,7.71572875 31,16 C31,24.2842712 24.2842712,31 16,31 Z M24,12.4204926 C23.448572,12.6617875 22.8551245,12.8245491 22.2324463,12.8973872 C22.8682175,12.5227057 23.3557031,11.9292102 23.5855916,11.221212 C22.9909263,11.5686167 22.3326229,11.8207024 21.6313866,11.9567867 C21.070215,11.3680871 20.2703246,11 19.3851775,11 C17.6858291,11 16.3080202,12.3563471 16.3080202,14.0295249 C16.3080202,14.2666234 16.3351197,14.4977269 16.3877961,14.7198381 C13.8300956,14.5933457 11.5622678,13.3874706 10.0443944,11.5545287 C9.77948968,12.0017485 9.62785458,12.5221062 9.62785458,13.0778338 C9.62785458,14.1287406 10.1710614,15.0561523 10.9968333,15.5992906 C10.4926009,15.5834041 10.0179039,15.44702 9.60288655,15.2201129 C9.60258206,15.2327022 9.60258206,15.2455912 9.60258206,15.2584803 C9.60258206,16.7260329 10.6634188,17.9501923 12.071372,18.2289554 C11.8131661,18.2978968 11.5412581,18.3350652 11.2605201,18.3350652 C11.0619938,18.3350652 10.8692528,18.3161812 10.6813836,18.2805116 C11.0732599,19.4839886 12.2096096,20.3601439 13.5560563,20.3844232 C12.5028317,21.1970325 11.1761768,21.6814208 9.73412094,21.6814208 C9.4859631,21.6814208 9.24085013,21.667033 9,21.638857 C10.36228,22.498826 11.9797211,23 13.717435,23 C19.3781743,23 22.4732964,18.3839237 22.4732964,14.3805266 C22.4732964,14.2492381 22.470556,14.1182495 22.4647707,13.9881601 C23.0658303,13.5619224 23.587723,13.0280761 24,12.4204926 Z" id="Combined-Shape"></path>
        </g>
    </g>
</svg>